<svg id="Group_72068" data-name="Group 72068" xmlns="http://www.w3.org/2000/svg" xmlns:xlink="http://www.w3.org/1999/xlink" width="127.411" height="126.354" viewBox="0 0 127.411 126.354">
  <defs>
    <linearGradient id="linear-gradient" x1="1.003" y1="1.087" x2="0.095" y2="0.056" gradientUnits="objectBoundingBox">
      <stop offset="0" stop-color="#dae3fe"/>
      <stop offset="1" stop-color="#e9effd"/>
    </linearGradient>
    <linearGradient id="linear-gradient-2" x1="3.614" y1="-3.257" x2="-0.159" y2="2.36" gradientUnits="objectBoundingBox">
      <stop offset="0" stop-color="#fdf53f"/>
      <stop offset="1" stop-color="#d93c65"/>
    </linearGradient>
    <linearGradient id="linear-gradient-3" x1="2.711" y1="-4.664" x2="0.627" y2="1.782" xlink:href="#linear-gradient-2"/>
    <linearGradient id="linear-gradient-4" x1="7.173" y1="-5.873" x2="3.287" y2="0.341" gradientUnits="objectBoundingBox">
      <stop offset="0" stop-color="#a737d5"/>
      <stop offset="1" stop-color="#ef497a"/>
    </linearGradient>
    <linearGradient id="linear-gradient-5" x1="8.221" y1="-6.977" x2="4.335" y2="-0.764" xlink:href="#linear-gradient-4"/>
    <linearGradient id="linear-gradient-6" x1="9.156" y1="-6.941" x2="4.042" y2="-0.262" xlink:href="#linear-gradient-4"/>
    <linearGradient id="linear-gradient-7" x1="10.317" y1="-9.187" x2="6.43" y2="-2.973" xlink:href="#linear-gradient-4"/>
    <linearGradient id="linear-gradient-8" x1="-2.509" y1="-3.677" x2="-7.471" y2="1.65" xlink:href="#linear-gradient-4"/>
    <linearGradient id="linear-gradient-9" x1="0.5" y1="0.941" x2="0.429" y2="-0.71" gradientUnits="objectBoundingBox">
      <stop offset="0" stop-color="#09005d"/>
      <stop offset="1" stop-color="#1a0f91"/>
    </linearGradient>
    <linearGradient id="linear-gradient-10" x1="-0.196" y1="-0.712" x2="2.177" y2="3.418" gradientUnits="objectBoundingBox">
      <stop offset="0" stop-color="#64d55c"/>
      <stop offset="1" stop-color="#fe7062"/>
    </linearGradient>
    <linearGradient id="linear-gradient-12" x1="1.519" y1="-0.775" x2="-1.484" y2="2.907" gradientUnits="objectBoundingBox">
      <stop offset="0" stop-color="#2b3582"/>
      <stop offset="1" stop-color="#150e42"/>
    </linearGradient>
    <linearGradient id="linear-gradient-13" x1="1.004" y1="-2.464" x2="-0.074" y2="4.125" xlink:href="#linear-gradient-12"/>
    <linearGradient id="linear-gradient-14" x1="-0.301" y1="1.165" x2="2.009" y2="-0.739" gradientUnits="objectBoundingBox">
      <stop offset="0" stop-color="#64d55c"/>
      <stop offset="1" stop-color="#0ba900"/>
    </linearGradient>
    <linearGradient id="linear-gradient-15" x1="0.727" y1="-2.869" x2="0.282" y2="3.71" gradientUnits="objectBoundingBox">
      <stop offset="0" stop-color="#4f52ff"/>
      <stop offset="1" stop-color="#4042e2"/>
    </linearGradient>
  </defs>
  <path id="Path_331" data-name="Path 331" d="M601.335,563.512c-23.033,24.307-58.413,17.116-63.643,15.96-6.589-1.456-22.264-4.919-33.961-18.594-17.909-20.936-16.1-53.657-2.269-75.716,4.024-6.419,17.568-25.494,43-29.642,1.486-.242,28.044-4.136,49.413,13.793a58.514,58.514,0,0,1,11.607,13.17C618.126,502.257,624.11,539.478,601.335,563.512Z" transform="translate(-489.289 -455)" fill="url(#linear-gradient)"/>
  <g id="Group_69754" data-name="Group 69754" transform="translate(42.91 4.819)">
    <path id="Path_332" data-name="Path 332" d="M1417.626,562.1a2.138,2.138,0,0,1,2.812-1.586c8.124,2.9,36.141,12.465,60.3,15.65a1.977,1.977,0,0,1,1.7,2.263l-14.056,90.178a2.275,2.275,0,0,1-2.584,1.9c-10.124-1.516-51.788-7.908-66.152-12.542a1.8,1.8,0,0,1-1.21-2.078Z" transform="translate(-1398.399 -560.393)" fill="#91b3fa"/>
    <path id="Path_333" data-name="Path 333" d="M1443.979,616.863a2.057,2.057,0,0,1,2.706-1.526c7.818,2.787,34.78,12,58.031,15.061a1.9,1.9,0,0,1,1.635,2.178l-13.526,86.782a2.189,2.189,0,0,1-2.487,1.828c-9.743-1.459-49.838-7.61-63.662-12.069a1.734,1.734,0,0,1-1.164-2Z" transform="translate(-1424.237 -612.709)" fill="#fff" opacity="0.6"/>
    <path id="Path_334" data-name="Path 334" d="M1900.712,806.973a1.271,1.271,0,0,0-1.56,1.03l-3.023,18.579a1.2,1.2,0,0,0,.9,1.355c3.387.814,13.951,3.311,20.012,4.262a1.335,1.335,0,0,0,1.5-1c.842-3.427,3.208-13.417,3.307-17.781a1.507,1.507,0,0,0-1.147-1.494Z" transform="translate(-1873.355 -795.662)" fill="#fff" opacity="0.78"/>
    <circle id="Ellipse_211" data-name="Ellipse 211" cx="4.042" cy="4.042" r="4.042" transform="matrix(0.361, -0.932, 0.932, 0.361, 30.771, 23.67)" fill="url(#linear-gradient-2)"/>
    <path id="Path_335" data-name="Path 335" d="M1983.524,1162.7l12.6,2.656a1,1,0,0,0,1.136-1.331,8.311,8.311,0,0,0-6.34-5.539,8.978,8.978,0,0,0-7.894,2.434A1.042,1.042,0,0,0,1983.524,1162.7Z" transform="translate(-1955.979 -1130.997)" fill="url(#linear-gradient-3)"/>
    <g id="Group_69742" data-name="Group 69742" transform="translate(53.447 18.241)" opacity="0.6">
      <path id="Path_336" data-name="Path 336" d="M2589.68,965.633a.666.666,0,0,0,.829-.47.73.73,0,0,0-.6-.785l-22-5.048a.476.476,0,0,0-.619.563l.042.322a1.112,1.112,0,0,0,.813.878Z" transform="translate(-2567.278 -959.311)" fill="#fff"/>
    </g>
    <g id="Group_69743" data-name="Group 69743" transform="translate(52.724 21.671)" opacity="0.6">
      <path id="Path_337" data-name="Path 337" d="M2552.094,1034.343a.477.477,0,0,0-.619.563l.042.322a1.112,1.112,0,0,0,.813.878l21.54,4.54a.666.666,0,0,0,.83-.47.73.73,0,0,0-.6-.785Z" transform="translate(-2551.468 -1034.325)" fill="#fff"/>
    </g>
    <g id="Group_69744" data-name="Group 69744" transform="translate(51.991 25.151)" opacity="0.6">
      <path id="Path_338" data-name="Path 338" d="M2536.054,1110.447a.476.476,0,0,0-.619.563l.042.322a1.112,1.112,0,0,0,.813.878l21.539,4.54a.667.667,0,0,0,.83-.47.73.73,0,0,0-.6-.785Z" transform="translate(-2535.429 -1110.429)" fill="#fff"/>
    </g>
    <g id="Group_69745" data-name="Group 69745" transform="translate(21.066 36.117)" opacity="0.6">
      <path id="Path_339" data-name="Path 339" d="M1911.041,1362.86a.638.638,0,0,0,.807-.474.755.755,0,0,0-.627-.783l-51.656-11.313c-.394-.086-.568.138-.388.5l.311.62a1.728,1.728,0,0,0,1.046.807Z" transform="translate(-1859.105 -1350.271)" fill="#fff"/>
    </g>
    <g id="Group_69746" data-name="Group 69746" transform="translate(20.343 39.547)" opacity="0.6">
      <path id="Path_340" data-name="Path 340" d="M1843.755,1425.3c-.394-.086-.568.138-.388.5l.311.62a1.728,1.728,0,0,0,1.046.807l50.507,10.645a.638.638,0,0,0,.807-.475.755.755,0,0,0-.627-.783Z" transform="translate(-1843.295 -1425.285)" fill="#fff"/>
    </g>
    <path id="Path_341" data-name="Path 341" d="M1790.943,1549.706c1.264.167,3.6.614,4.889.866a1.188,1.188,0,0,1,.96,1.131,19.354,19.354,0,0,1-.444,4.811,1.055,1.055,0,0,1-1.254.791l-4.722-1.048a1.161,1.161,0,0,1-.9-1.267l.522-4.54A.846.846,0,0,1,1790.943,1549.706Z" transform="translate(-1771.581 -1504.462)" fill="#fff" opacity="0.6"/>
    <g id="Group_69747" data-name="Group 69747" transform="translate(26.927 48.894)" opacity="0.6">
      <path id="Path_342" data-name="Path 342" d="M1988.083,1629.719a.583.583,0,0,0-.754.551l-.046.787a.881.881,0,0,0,.675.883l11.494,2.422a.724.724,0,0,0,.86-.568l.038-.194a.785.785,0,0,0-.568-.9Z" transform="translate(-1987.282 -1629.697)" fill="#fff"/>
    </g>
    <path id="Path_343" data-name="Path 343" d="M2354.787,1668.54c1.264.167,3.6.614,4.889.866a1.188,1.188,0,0,1,.96,1.131,19.368,19.368,0,0,1-.444,4.81,1.055,1.055,0,0,1-1.254.791l-4.721-1.048a1.162,1.162,0,0,1-.9-1.266l.522-4.54A.847.847,0,0,1,2354.787,1668.54Z" transform="translate(-2309.644 -1617.862)" fill="#fff" opacity="0.6"/>
    <g id="Group_69748" data-name="Group 69748" transform="translate(52.709 54.328)" opacity="0.6">
      <path id="Path_344" data-name="Path 344" d="M2551.927,1748.553a.583.583,0,0,0-.753.551l-.046.787a.881.881,0,0,0,.675.883l11.494,2.422a.725.725,0,0,0,.86-.568l.039-.195a.786.786,0,0,0-.569-.9Z" transform="translate(-2551.126 -1748.531)" fill="#fff"/>
    </g>
    <g id="Group_69753" data-name="Group 69753" transform="translate(11.035 56.865)">
      <path id="Path_345" data-name="Path 345" d="M1774.518,1826.72l-.012,0-4.358-.962a1.2,1.2,0,0,1-.988-1.251l.388-3.745a.814.814,0,0,1,.314-.559.981.981,0,0,1,.738-.189h0c.373.052.9.117,1.459.187,1.176.145,2.639.326,3.45.486a1.247,1.247,0,0,1,1.043,1.113,18.72,18.72,0,0,1-.706,4.164A1.1,1.1,0,0,1,1774.518,1826.72Zm-3.965-6.369a.633.633,0,0,0-.479.119.472.472,0,0,0-.185.324l-.388,3.745a.858.858,0,0,0,.721.881l4.358.962.009,0a.76.76,0,0,0,.924-.5,18.625,18.625,0,0,0,.7-4.066.921.921,0,0,0-.767-.8c-.8-.158-2.255-.338-3.425-.482-.56-.069-1.089-.134-1.465-.187Z" transform="translate(-1763.236 -1819.271)" fill="#fff"/>
      <path id="Path_346" data-name="Path 346" d="M1787.407,1837.937c.931.131,2.967.349,3.915.536a.864.864,0,0,1,.723.763,15.17,15.17,0,0,1-.561,3.288.742.742,0,0,1-.908.5l-3.483-.769a.824.824,0,0,1-.682-.852l.31-2.993A.579.579,0,0,1,1787.407,1837.937Z" transform="translate(-1779.701 -1836.38)" fill="#fff" opacity="0.6"/>
      <g id="Group_69749" data-name="Group 69749" transform="translate(15.628 4.661)" opacity="0.6">
        <path id="Path_347" data-name="Path 347" d="M1981.513,1907.113a1.108,1.108,0,0,0,.887,1.031l40.477,8.171a.838.838,0,0,0,.342-1.641l-40.367-8.7A1.108,1.108,0,0,0,1981.513,1907.113Z" transform="translate(-1981.511 -1905.949)" fill="#fff"/>
      </g>
      <path id="Path_348" data-name="Path 348" d="M1799.476,1806.192h0a.685.685,0,0,1,.871.446l.536,1.726a.22.22,0,0,0,.388.064l3.139-4.306a.244.244,0,0,1,.434.2,9.6,9.6,0,0,1-4.11,5.959,5.218,5.218,0,0,1-1.73-3.251A.719.719,0,0,1,1799.476,1806.192Z" transform="translate(-1791.705 -1804.021)" fill="url(#linear-gradient-4)"/>
      <path id="Path_349" data-name="Path 349" d="M1731.377,2031.409l-.012,0-4.358-.962a1.2,1.2,0,0,1-.988-1.251l.388-3.745a.813.813,0,0,1,.314-.559.981.981,0,0,1,.738-.189h0c.373.052.9.118,1.459.187,1.176.145,2.639.325,3.45.486l.018,0a1.244,1.244,0,0,1,1.025,1.109,18.715,18.715,0,0,1-.706,4.164A1.1,1.1,0,0,1,1731.377,2031.409Zm-3.965-6.369a.635.635,0,0,0-.479.119.473.473,0,0,0-.185.324l-.388,3.745a.858.858,0,0,0,.721.881l4.358.962.009,0a.76.76,0,0,0,.924-.5,18.621,18.621,0,0,0,.7-4.066.916.916,0,0,0-.767-.8c-.8-.158-2.255-.338-3.425-.482-.56-.069-1.089-.134-1.465-.187Z" transform="translate(-1722.069 -2014.6)" fill="#fff"/>
      <path id="Path_350" data-name="Path 350" d="M1744.267,2042.627c.931.131,2.967.348,3.915.536a.864.864,0,0,1,.723.763,15.168,15.168,0,0,1-.561,3.288.743.743,0,0,1-.908.5l-3.483-.769a.824.824,0,0,1-.683-.852l.31-2.993A.579.579,0,0,1,1744.267,2042.627Z" transform="translate(-1738.533 -2031.71)" fill="#fff" opacity="0.6"/>
      <g id="Group_69750" data-name="Group 69750" transform="translate(13.655 14.02)" opacity="0.6">
        <path id="Path_351" data-name="Path 351" d="M1938.373,2111.8a1.108,1.108,0,0,0,.888,1.031l40.477,8.171a.838.838,0,0,0,.342-1.64l-40.367-8.7A1.108,1.108,0,0,0,1938.373,2111.8Z" transform="translate(-1938.371 -2110.637)" fill="#fff"/>
      </g>
      <path id="Path_352" data-name="Path 352" d="M1756.337,2010.88h0a.685.685,0,0,1,.872.446l.536,1.725a.22.22,0,0,0,.388.064l3.139-4.306a.244.244,0,0,1,.434.2,9.6,9.6,0,0,1-4.11,5.959,5.218,5.218,0,0,1-1.73-3.251A.718.718,0,0,1,1756.337,2010.88Z" transform="translate(-1750.539 -1999.349)" fill="url(#linear-gradient-5)"/>
      <path id="Path_353" data-name="Path 353" d="M1688.237,2236.1l-.012,0-4.358-.962a1.2,1.2,0,0,1-.988-1.251l.388-3.745a.812.812,0,0,1,.314-.559.978.978,0,0,1,.738-.189h0c.373.052.9.117,1.459.187,1.176.145,2.639.325,3.45.486l.018,0a1.244,1.244,0,0,1,1.025,1.109,18.728,18.728,0,0,1-.706,4.164A1.1,1.1,0,0,1,1688.237,2236.1Zm-3.965-6.369a.637.637,0,0,0-.479.119.474.474,0,0,0-.185.325l-.388,3.745a.858.858,0,0,0,.721.881l4.358.962.009,0a.76.76,0,0,0,.924-.5,18.646,18.646,0,0,0,.7-4.065.914.914,0,0,0-.767-.8c-.8-.158-2.255-.337-3.425-.482-.56-.069-1.089-.134-1.464-.187Z" transform="translate(-1680.901 -2209.929)" fill="#fff"/>
      <path id="Path_354" data-name="Path 354" d="M1701.127,2247.315c.931.131,2.967.349,3.915.536a.865.865,0,0,1,.723.763,15.164,15.164,0,0,1-.561,3.288.742.742,0,0,1-.908.5l-3.483-.769a.823.823,0,0,1-.682-.852l.31-2.993A.58.58,0,0,1,1701.127,2247.315Z" transform="translate(-1697.366 -2227.039)" fill="#fff" opacity="0.6"/>
      <g id="Group_69751" data-name="Group 69751" transform="translate(11.683 23.38)" opacity="0.6">
        <path id="Path_355" data-name="Path 355" d="M1895.234,2316.49a1.108,1.108,0,0,0,.887,1.031l40.477,8.171a.838.838,0,0,0,.342-1.64l-40.367-8.7A1.108,1.108,0,0,0,1895.234,2316.49Z" transform="translate(-1895.232 -2315.326)" fill="#fff"/>
      </g>
      <path id="Path_356" data-name="Path 356" d="M1713.2,2215.569h0a.685.685,0,0,1,.871.447l.536,1.725a.22.22,0,0,0,.388.064l3.139-4.306a.244.244,0,0,1,.434.2,9.6,9.6,0,0,1-4.11,5.959,5.217,5.217,0,0,1-1.73-3.251A.719.719,0,0,1,1713.2,2215.569Z" transform="translate(-1709.371 -2194.678)" fill="url(#linear-gradient-6)"/>
      <path id="Path_357" data-name="Path 357" d="M1645.1,2440.786l-.012,0-4.358-.963a1.2,1.2,0,0,1-.988-1.25l.388-3.745a.815.815,0,0,1,.314-.559.979.979,0,0,1,.738-.189h0c.373.052.9.117,1.459.187,1.176.145,2.639.326,3.45.486l.018,0a1.244,1.244,0,0,1,1.025,1.11,18.717,18.717,0,0,1-.706,4.164A1.1,1.1,0,0,1,1645.1,2440.786Zm-3.965-6.369a.635.635,0,0,0-.479.119.473.473,0,0,0-.185.325l-.388,3.745a.858.858,0,0,0,.721.881l4.358.962.009,0a.76.76,0,0,0,.924-.5,18.622,18.622,0,0,0,.7-4.066.913.913,0,0,0-.767-.8c-.8-.158-2.255-.338-3.425-.482-.56-.069-1.089-.134-1.465-.187Z" transform="translate(-1639.734 -2405.258)" fill="#fff"/>
      <path id="Path_358" data-name="Path 358" d="M1657.987,2452c.931.13,2.967.348,3.915.536a.864.864,0,0,1,.723.763,15.159,15.159,0,0,1-.561,3.288.742.742,0,0,1-.908.5l-3.483-.769a.824.824,0,0,1-.682-.852l.31-2.993A.579.579,0,0,1,1657.987,2452Z" transform="translate(-1656.199 -2422.368)" fill="#fff" opacity="0.6"/>
      <g id="Group_69752" data-name="Group 69752" transform="translate(9.71 32.739)" opacity="0.6">
        <path id="Path_359" data-name="Path 359" d="M1852.094,2521.179h0a1.108,1.108,0,0,0,.888,1.031l40.477,8.171a.838.838,0,0,0,.342-1.64l-40.367-8.7A1.108,1.108,0,0,0,1852.094,2521.179Z" transform="translate(-1852.092 -2520.015)" fill="#fff"/>
      </g>
      <path id="Path_360" data-name="Path 360" d="M1670.057,2420.258h0a.685.685,0,0,1,.872.446l.536,1.726a.22.22,0,0,0,.388.064l3.139-4.306a.244.244,0,0,1,.434.2,9.6,9.6,0,0,1-4.11,5.959,5.216,5.216,0,0,1-1.73-3.251A.718.718,0,0,1,1670.057,2420.258Z" transform="translate(-1668.204 -2390.009)" fill="url(#linear-gradient-7)"/>
    </g>
  </g>
  <g id="Group_69767" data-name="Group 69767" transform="translate(1.197 6.48)">
    <path id="Path_361" data-name="Path 361" d="M486.187,608.924a2.138,2.138,0,0,1,1.952-2.572c8.606-.565,38.12-2.9,61.56-9.566a1.977,1.977,0,0,1,2.457,1.4l22.888,88.35a2.275,2.275,0,0,1-1.618,2.77c-9.894,2.627-50.673,13.295-65.7,14.742a1.8,1.8,0,0,1-1.935-1.427Z" transform="translate(-486.141 -596.709)" fill="#91b3fa"/>
    <path id="Path_362" data-name="Path 362" d="M517.74,663.088a2.057,2.057,0,0,1,1.878-2.475c8.282-.544,36.684-2.793,59.242-9.206a1.9,1.9,0,0,1,2.365,1.35l22.026,85.023a2.189,2.189,0,0,1-1.557,2.665c-9.522,2.528-48.765,12.794-63.223,14.187a1.734,1.734,0,0,1-1.862-1.373Z" transform="translate(-516.253 -648.836)" fill="#fff" opacity="0.6"/>
    <path id="Path_363" data-name="Path 363" d="M710.463,916.332l4.6,18.253a1.2,1.2,0,0,0,1.364.887c3.432-.6,14.119-2.5,20.06-4.03a1.335,1.335,0,0,0,.982-1.516c-.587-3.479-2.38-13.588-4.021-17.633a1.507,1.507,0,0,0-1.646-.916l-20.315,3.392A1.271,1.271,0,0,0,710.463,916.332Z" transform="translate(-700.169 -896.968)" fill="#fff" opacity="0.78"/>
    <circle id="Ellipse_212" data-name="Ellipse 212" cx="4.042" cy="4.042" r="4.042" transform="matrix(0.068, -0.998, 0.998, 0.068, 18.932, 27.352)" fill="#91b3fa"/>
    <path id="Path_364" data-name="Path 364" d="M888.347,1247.109l12.62-2.563a1,1,0,0,0,.515-1.673,8.311,8.311,0,0,0-8.018-2.568,8.978,8.978,0,0,0-6.28,5.367A1.042,1.042,0,0,0,888.347,1247.109Z" transform="translate(-868.762 -1210.662)" fill="#91b3fa"/>
    <g id="Group_69755" data-name="Group 69755" transform="translate(38.16 9.462)" opacity="0.6">
      <path id="Path_365" data-name="Path 365" d="M1343.623,804.891a.666.666,0,0,0,.575-.76.73.73,0,0,0-.865-.481l-22.2,4.1a.476.476,0,0,0-.344.763l.167.279a1.112,1.112,0,0,0,1.095.483Z" transform="translate(-1320.697 -803.634)" fill="#fff"/>
    </g>
    <g id="Group_69756" data-name="Group 69756" transform="translate(38.858 12.897)" opacity="0.6">
      <path id="Path_366" data-name="Path 366" d="M1336.392,882.875a.476.476,0,0,0-.345.762l.167.279a1.112,1.112,0,0,0,1.095.483l21.572-4.381a.666.666,0,0,0,.575-.76.73.73,0,0,0-.865-.481Z" transform="translate(-1335.956 -878.763)" fill="#fff"/>
    </g>
    <g id="Group_69757" data-name="Group 69757" transform="translate(39.566 16.382)" opacity="0.6">
      <path id="Path_367" data-name="Path 367" d="M1351.873,959.095a.476.476,0,0,0-.345.762l.167.279a1.112,1.112,0,0,0,1.095.483l21.572-4.381a.666.666,0,0,0,.575-.76.73.73,0,0,0-.865-.481Z" transform="translate(-1351.437 -954.982)" fill="#fff"/>
    </g>
    <g id="Group_69758" data-name="Group 69758" transform="translate(15.467 32.768)" opacity="0.6">
      <path id="Path_368" data-name="Path 368" d="M876.978,1314.574a.638.638,0,0,0,.552-.756.754.754,0,0,0-.886-.469l-51.9,10.117c-.4.077-.467.352-.158.611l.531.446a1.726,1.726,0,0,0,1.28.325Z" transform="translate(-824.391 -1313.333)" fill="#fff"/>
    </g>
    <g id="Group_69759" data-name="Group 69759" transform="translate(16.164 36.203)" opacity="0.6">
      <path id="Path_369" data-name="Path 369" d="M840,1398.593c-.4.077-.467.352-.158.612l.531.446a1.727,1.727,0,0,0,1.28.325l50.583-10.274a.638.638,0,0,0,.552-.756.755.755,0,0,0-.886-.469Z" transform="translate(-839.649 -1388.461)" fill="#fff"/>
    </g>
    <path id="Path_370" data-name="Path 370" d="M854.866,1712.054c1.227-.349,3.551-.867,4.832-1.146a1.188,1.188,0,0,1,1.33.657,19.358,19.358,0,0,1,1.5,4.592,1.055,1.055,0,0,1-.838,1.224l-4.75.912a1.162,1.162,0,0,1-1.331-.8l-1.322-4.374A.846.846,0,0,1,854.866,1712.054Z" transform="translate(-837.421 -1659.935)" fill="#fff" opacity="0.6"/>
    <g id="Group_69760" data-name="Group 69760" transform="translate(26.067 50.253)" opacity="0.6">
      <path id="Path_371" data-name="Path 371" d="M1056.741,1697.653a.584.584,0,0,0-.473.8l.27.741a.881.881,0,0,0,.97.543l11.511-2.338a.724.724,0,0,0,.564-.863l-.042-.194a.785.785,0,0,0-.879-.6Z" transform="translate(-1056.226 -1695.737)" fill="#fff"/>
    </g>
    <path id="Path_372" data-name="Path 372" d="M1419.567,1597.359c1.227-.349,3.551-.867,4.832-1.146a1.188,1.188,0,0,1,1.33.657,19.359,19.359,0,0,1,1.5,4.591,1.055,1.055,0,0,1-.838,1.224l-4.75.912a1.161,1.161,0,0,1-1.331-.8l-1.322-4.374A.846.846,0,0,1,1419.567,1597.359Z" transform="translate(-1376.3 -1550.484)" fill="#fff" opacity="0.6"/>
    <g id="Group_69761" data-name="Group 69761" transform="translate(51.888 45.009)" opacity="0.6">
      <path id="Path_373" data-name="Path 373" d="M1621.441,1582.958a.584.584,0,0,0-.473.8l.27.741a.881.881,0,0,0,.97.543l11.511-2.338a.725.725,0,0,0,.564-.863l-.042-.194a.785.785,0,0,0-.879-.6Z" transform="translate(-1620.926 -1581.042)" fill="#fff"/>
    </g>
    <g id="Group_69766" data-name="Group 69766" transform="translate(20.763 55.606)">
      <path id="Path_374" data-name="Path 374" d="M947.175,1969.226l-.012,0-4.382.846a1.2,1.2,0,0,1-1.4-.756l-1.13-3.592a.813.813,0,0,1,.067-.638.98.98,0,0,1,.6-.466h0c.363-.1.873-.25,1.413-.408,1.137-.333,2.552-.748,3.359-.923a1.247,1.247,0,0,1,1.4.608,18.717,18.717,0,0,1,1,4.1A1.1,1.1,0,0,1,947.175,1969.226Zm-6.167-4.273a.635.635,0,0,0-.392.3.474.474,0,0,0-.041.371l1.13,3.592a.859.859,0,0,0,1.011.523l4.382-.846.009,0a.76.76,0,0,0,.648-.828,18.623,18.623,0,0,0-.973-4.008.921.921,0,0,0-1.02-.427c-.8.172-2.2.585-3.335.917-.541.159-1.053.309-1.419.41Z" transform="translate(-940.211 -1956.381)" fill="#fff"/>
      <path id="Path_375" data-name="Path 375" d="M959.935,1983.842c.906-.249,2.862-.858,3.807-1.062a.864.864,0,0,1,.966.413,15.174,15.174,0,0,1,.79,3.241.743.743,0,0,1-.634.822l-3.5.676a.824.824,0,0,1-.964-.511l-.9-2.87A.579.579,0,0,1,959.935,1983.842Z" transform="translate(-958.591 -1974.986)" fill="#fff" opacity="0.6"/>
      <g id="Group_69762" data-name="Group 69762" transform="translate(10.195)" opacity="0.6">
        <path id="Path_376" data-name="Path 376" d="M1163.29,1822.431a1.108,1.108,0,0,0,1.224.594l40.4-8.564a.838.838,0,0,0-.337-1.642l-40.5,8.035A1.108,1.108,0,0,0,1163.29,1822.431Z" transform="translate(-1163.175 -1812.803)" fill="#fff"/>
      </g>
      <path id="Path_377" data-name="Path 377" d="M988.812,2174.2l-.012,0-4.382.846a1.2,1.2,0,0,1-1.4-.756l-1.13-3.591a.814.814,0,0,1,.067-.638.979.979,0,0,1,.6-.466h0c.363-.1.873-.25,1.413-.408,1.137-.333,2.552-.748,3.359-.923l.018,0a1.244,1.244,0,0,1,1.381.611,18.724,18.724,0,0,1,1,4.1A1.1,1.1,0,0,1,988.812,2174.2Zm-6.167-4.273a.636.636,0,0,0-.392.3.473.473,0,0,0-.041.371l1.13,3.592a.859.859,0,0,0,1.011.523l4.382-.846.009,0a.76.76,0,0,0,.648-.829,18.622,18.622,0,0,0-.974-4.008.915.915,0,0,0-1.02-.426c-.8.172-2.2.585-3.335.917-.541.159-1.053.309-1.419.409Z" transform="translate(-979.944 -2151.982)" fill="#fff"/>
      <path id="Path_378" data-name="Path 378" d="M1001.572,2188.842c.906-.25,2.862-.858,3.806-1.062a.865.865,0,0,1,.966.414,15.168,15.168,0,0,1,.79,3.241.743.743,0,0,1-.634.822l-3.5.676a.824.824,0,0,1-.965-.511l-.9-2.87A.579.579,0,0,1,1001.572,2188.842Z" transform="translate(-998.324 -2170.612)" fill="#fff" opacity="0.6"/>
      <g id="Group_69763" data-name="Group 69763" transform="translate(12.099 9.374)" opacity="0.6">
        <path id="Path_379" data-name="Path 379" d="M1204.927,2027.431a1.108,1.108,0,0,0,1.224.594l40.4-8.564a.838.838,0,0,0-.337-1.642l-40.5,8.035A1.108,1.108,0,0,0,1204.927,2027.431Z" transform="translate(-1204.812 -2017.803)" fill="#fff"/>
      </g>
      <path id="Path_380" data-name="Path 380" d="M1030.449,2379.2l-.012,0-4.382.846a1.2,1.2,0,0,1-1.4-.756l-1.13-3.592a.813.813,0,0,1,.066-.638.98.98,0,0,1,.6-.466h0c.363-.1.873-.25,1.413-.408,1.137-.334,2.551-.749,3.359-.923l.017,0a1.245,1.245,0,0,1,1.381.612,18.71,18.71,0,0,1,1,4.1A1.1,1.1,0,0,1,1030.449,2379.2Zm-6.167-4.273a.636.636,0,0,0-.392.3.474.474,0,0,0-.041.371l1.13,3.592a.858.858,0,0,0,1.011.522l4.382-.846h.009a.76.76,0,0,0,.648-.829,18.638,18.638,0,0,0-.973-4.009.915.915,0,0,0-1.02-.426c-.8.172-2.2.585-3.335.917-.541.159-1.053.309-1.419.409Z" transform="translate(-1019.678 -2347.606)" fill="#fff"/>
      <path id="Path_381" data-name="Path 381" d="M1043.209,2393.841c.906-.25,2.862-.858,3.806-1.062a.864.864,0,0,1,.966.413,15.184,15.184,0,0,1,.79,3.241.743.743,0,0,1-.634.822l-3.5.676a.824.824,0,0,1-.964-.511l-.9-2.87A.579.579,0,0,1,1043.209,2393.841Z" transform="translate(-1038.057 -2366.238)" fill="#fff" opacity="0.6"/>
      <g id="Group_69764" data-name="Group 69764" transform="translate(14.003 18.747)" opacity="0.6">
        <path id="Path_382" data-name="Path 382" d="M1246.564,2232.43a1.108,1.108,0,0,0,1.224.594l40.4-8.564a.838.838,0,0,0-.337-1.642l-40.5,8.035A1.108,1.108,0,0,0,1246.564,2232.43Z" transform="translate(-1246.449 -2222.802)" fill="#fff"/>
      </g>
      <path id="Path_383" data-name="Path 383" d="M1072.086,2584.2l-.012,0-4.382.846a1.2,1.2,0,0,1-1.4-.756l-1.13-3.591a.814.814,0,0,1,.067-.638.981.981,0,0,1,.6-.466h0c.363-.1.873-.25,1.413-.408,1.137-.333,2.552-.749,3.359-.923l.018,0a1.245,1.245,0,0,1,1.381.612,18.731,18.731,0,0,1,1,4.1A1.1,1.1,0,0,1,1072.086,2584.2Zm-6.167-4.272a.636.636,0,0,0-.392.3.474.474,0,0,0-.041.371l1.13,3.592a.858.858,0,0,0,1.011.522l4.382-.846.009,0a.76.76,0,0,0,.648-.829,18.64,18.64,0,0,0-.974-4.008.913.913,0,0,0-1.02-.426c-.8.172-2.2.585-3.335.917-.541.159-1.053.309-1.419.409Z" transform="translate(-1059.411 -2543.233)" fill="#fff"/>
      <path id="Path_384" data-name="Path 384" d="M1084.846,2598.84c.906-.249,2.862-.858,3.807-1.062a.864.864,0,0,1,.966.413,15.178,15.178,0,0,1,.79,3.241.743.743,0,0,1-.634.822l-3.5.676a.824.824,0,0,1-.965-.511l-.9-2.87A.579.579,0,0,1,1084.846,2598.84Z" transform="translate(-1077.791 -2561.864)" fill="#fff" opacity="0.6"/>
      <g id="Group_69765" data-name="Group 69765" transform="translate(15.907 28.121)" opacity="0.6">
        <path id="Path_385" data-name="Path 385" d="M1288.2,2437.43h0a1.108,1.108,0,0,0,1.224.594l40.4-8.564a.838.838,0,0,0-.337-1.642l-40.5,8.035A1.108,1.108,0,0,0,1288.2,2437.43Z" transform="translate(-1288.087 -2427.802)" fill="#fff"/>
      </g>
      <path id="Path_386" data-name="Path 386" d="M1096.185,2548.746h0a.685.685,0,0,1,.977.064l1.177,1.371a.22.22,0,0,0,.381-.095l1.172-5.2a.244.244,0,0,1,.478.01,9.6,9.6,0,0,1-1.407,7.1,5.219,5.219,0,0,1-2.878-2.3A.719.719,0,0,1,1096.185,2548.746Z" transform="translate(-1088.826 -2511.232)" fill="url(#linear-gradient-8)"/>
    </g>
  </g>
  <g id="Group_69770" data-name="Group 69770" transform="translate(0 55.903)">
    <g id="Group_69768" data-name="Group 69768" transform="translate(2.679)">
      <path id="Path_387" data-name="Path 387" d="M543.315,1716.823a116.97,116.97,0,0,0,2.475,14.57h.711a79.5,79.5,0,0,1-2.414-22.848c.4-9.213,2.656-20.4-1.551-25.742-3.5-4.447-18.36-5.112-23.246-5.21a.721.721,0,0,0-.58,1.169c1.873,2.357,5.8,7.816,6.137,12.582.451,6.283,5.333,11.214,10.185,13.266S542.5,1708.23,543.315,1716.823Z" transform="translate(-518.552 -1677.594)" fill="#91b3fa"/>
      <path id="Path_388" data-name="Path 388" d="M665.5,1762.46a23.427,23.427,0,0,1,8.335,4.012,18.339,18.339,0,0,1,3.349,3.261,15.855,15.855,0,0,1,2.334,4.068l.208.551c.068.184.119.374.179.561s.118.377.167.563l.148.558q.3,1.116.584,2.236.568,2.24,1.066,4.5c.665,3.009,1.237,6.038,1.623,9.1a.134.134,0,0,1-.265.041v0q-.412-2.262-.91-4.515t-1.028-4.491l-.547-2.238-.572-2.231q-.285-1.116-.589-2.227l-.15-.556c-.05-.185-.109-.361-.163-.542s-.1-.362-.168-.539l-.2-.529a15.735,15.735,0,0,0-2.212-3.924,17.393,17.393,0,0,0-1.5-1.7l-.2-.2-.207-.194c-.139-.129-.274-.262-.415-.388-.286-.248-.57-.5-.87-.734a23.491,23.491,0,0,0-3.83-2.475,24.439,24.439,0,0,0-4.226-1.751l-.007,0a.108.108,0,0,1,.058-.207Z" transform="translate(-658.649 -1758.576)" fill="#fff" opacity="0.5"/>
    </g>
    <g id="Group_69769" data-name="Group 69769" transform="translate(0 29.397)">
      <path id="Path_389" data-name="Path 389" d="M487.552,2336.024a11.372,11.372,0,0,1,2.293,7.587c.014.314.031.758.067,1.282h.694a15.21,15.21,0,0,1-.278-2.157c-.247-4.883-1.349-13.218-5.56-18.2s-8.823-5.441-14.634-.908c-4.842,3.777-7.863,5.683-9.635,6.038a.669.669,0,0,0-.449.976c1.136,2.093,4.348,6.9,9.742,6.561C476.672,2336.766,485.01,2332.293,487.552,2336.024Z" transform="translate(-459.969 -2320.49)" fill="#91b3fa"/>
      <path id="Path_390" data-name="Path 390" d="M724.628,2444.517a13.873,13.873,0,0,1,1.2-1c.416-.314.845-.613,1.291-.886a12.949,12.949,0,0,1,2.849-1.341,8.951,8.951,0,0,1,1.559-.35,6.644,6.644,0,0,1,1.617-.006c.134.022.27.035.4.064s.269.057.4.093l.758.235.742.289.719.345a9.06,9.06,0,0,1,2.505,1.959,11.252,11.252,0,0,1,1.735,2.639l.173.354c.059.117.1.241.154.361.1.242.2.483.294.727l.255.74c.09.245.148.5.221.75a27.265,27.265,0,0,1,.659,3.042.1.1,0,0,1-.2.042v0c-.242-1-.475-2-.809-2.973-.151-.49-.343-.964-.521-1.442-.1-.236-.206-.466-.307-.7-.054-.115-.1-.235-.16-.346l-.177-.337a11.469,11.469,0,0,0-1.719-2.48,8.817,8.817,0,0,0-2.373-1.811l-.678-.322-.7-.269-.722-.22c-.12-.034-.237-.056-.356-.086s-.241-.039-.361-.06a6.064,6.064,0,0,0-1.473,0,8.41,8.41,0,0,0-1.466.3,14.058,14.058,0,0,0-2.79,1.189c-.445.248-.887.506-1.315.787s-.849.577-1.251.888l0,0a.109.109,0,0,1-.142-.165Z" transform="translate(-712.494 -2435.379)" fill="#fff" opacity="0.5"/>
    </g>
  </g>
  <g id="Group_69784" data-name="Group 69784" transform="translate(27.726 7.902)">
    <path id="Path_391" data-name="Path 391" d="M1066.328,917.407a6.922,6.922,0,0,1,6.922-6.922h58.865a6.1,6.1,0,0,1,6.091,5.788l4.345,85.343a4.5,4.5,0,0,1-4.41,4.725l-67.467,1.226a4.269,4.269,0,0,1-4.346-4.268Z" transform="translate(-1066.328 -897.56)" fill="url(#linear-gradient-9)"/>
    <g id="Group_69783" data-name="Group 69783" transform="translate(4.822 12.215)">
      <path id="Path_392" data-name="Path 392" d="M1171.794,896.973a2.01,2.01,0,0,1,2.28-2.005c8.039,1.09,35.681,4.462,58.536,2.707a1.859,1.859,0,0,1,2,1.754l4.556,85.724a2.14,2.14,0,0,1-2.01,2.25c-9.612.569-49.2,2.768-63.318,1.289a1.7,1.7,0,0,1-1.517-1.678Z" transform="translate(-1171.794 -894.949)" fill="#91b3fa"/>
      <path id="Path_393" data-name="Path 393" d="M1192.5,945.544a1.935,1.935,0,0,1,2.195-1.93c7.736,1.049,34.338,4.294,56.331,2.605a1.789,1.789,0,0,1,1.927,1.688l4.384,82.5a2.059,2.059,0,0,1-1.934,2.165c-9.25.547-47.345,2.664-60.933,1.24a1.632,1.632,0,0,1-1.46-1.615Z" transform="translate(-1191.555 -941.372)" fill="#fff" opacity="0.6"/>
      <path id="Path_394" data-name="Path 394" d="M1349.089,1099.183l.822,17.686a1.124,1.124,0,0,0,1.091,1.073c3.276.092,13.482.341,19.245.041a1.256,1.256,0,0,0,1.189-1.214c.11-3.317.35-12.971-.406-17.006a1.417,1.417,0,0,0-1.345-1.153l-19.36-.677A1.2,1.2,0,0,0,1349.089,1099.183Z" transform="translate(-1340.981 -1088.651)" fill="#fff" opacity="0.78"/>
      <circle id="Ellipse_213" data-name="Ellipse 213" cx="3.802" cy="3.802" r="3.802" transform="translate(14.675 19.682) rotate(-76.717)" fill="url(#linear-gradient-10)"/>
      <path id="Path_395" data-name="Path 395" d="M1445.975,1396.725h12.113a.938.938,0,0,0,.788-1.446,7.817,7.817,0,0,0-6.909-3.868,8.444,8.444,0,0,0-6.793,3.771A.98.98,0,0,0,1445.975,1396.725Z" transform="translate(-1432.502 -1368.707)" fill="url(#linear-gradient-10)"/>
      <g id="Group_69771" data-name="Group 69771" transform="translate(34.783 10.495)" opacity="0.6">
        <path id="Path_396" data-name="Path 396" d="M1954.252,1126.042a.627.627,0,0,0,.672-.593.687.687,0,0,0-.707-.606l-21.23-.378a.448.448,0,0,0-.46.638l.1.288a1.046,1.046,0,0,0,.919.651Z" transform="translate(-1932.49 -1124.464)" fill="#fff"/>
      </g>
      <g id="Group_69772" data-name="Group 69772" transform="translate(34.783 13.792)" opacity="0.6">
        <path id="Path_397" data-name="Path 397" d="M1932.987,1196.572a.448.448,0,0,0-.46.638l.1.289a1.046,1.046,0,0,0,.919.65h20.7a.627.627,0,0,0,.672-.593.686.686,0,0,0-.707-.605Z" transform="translate(-1932.49 -1196.571)" fill="#fff"/>
      </g>
      <g id="Group_69773" data-name="Group 69773" transform="translate(34.783 17.137)" opacity="0.6">
        <path id="Path_398" data-name="Path 398" d="M1932.987,1269.728a.448.448,0,0,0-.46.638l.1.288a1.046,1.046,0,0,0,.919.651h20.7a.627.627,0,0,0,.672-.593.687.687,0,0,0-.707-.606Z" transform="translate(-1932.49 -1269.727)" fill="#fff"/>
      </g>
      <g id="Group_69774" data-name="Group 69774" transform="translate(8.41 33.262)" opacity="0.6">
        <path id="Path_399" data-name="Path 399" d="M1405.914,1623.958a.6.6,0,0,0,.651-.593.71.71,0,0,0-.729-.6l-49.737-.392c-.379,0-.5.237-.26.534l.406.51a1.625,1.625,0,0,0,1.119.54Z" transform="translate(-1355.716 -1622.374)" fill="#fff"/>
      </g>
      <g id="Group_69775" data-name="Group 69775" transform="translate(8.41 36.559)" opacity="0.6">
        <path id="Path_400" data-name="Path 400" d="M1356.1,1694.48c-.379,0-.5.237-.26.534l.406.51a1.625,1.625,0,0,0,1.119.54h48.55a.6.6,0,0,0,.651-.594.71.71,0,0,0-.729-.6Z" transform="translate(-1355.716 -1694.48)" fill="#fff"/>
      </g>
      <path id="Path_401" data-name="Path 401" d="M1343.853,1811.714c1.2-.092,3.435-.134,4.668-.151a1.117,1.117,0,0,1,1.1.854,18.2,18.2,0,0,1,.525,4.514.992.992,0,0,1-1,.971l-4.549-.049a1.092,1.092,0,0,1-1.076-.991l-.4-4.28A.8.8,0,0,1,1343.853,1811.714Z" transform="translate(-1335.285 -1769.65)" fill="#64d55c"/>
      <g id="Group_69776" data-name="Group 69776" transform="translate(16.386 43.821)" opacity="0.6">
        <path id="Path_402" data-name="Path 402" d="M1530.745,1853.294a.549.549,0,0,0-.587.653l.11.734a.829.829,0,0,0,.792.682h11.048a.681.681,0,0,0,.681-.69l0-.187a.739.739,0,0,0-.7-.719Z" transform="translate(-1530.151 -1853.294)" fill="#fff"/>
      </g>
      <path id="Path_403" data-name="Path 403" d="M1885.85,1811.714c1.2-.092,3.435-.134,4.668-.151a1.117,1.117,0,0,1,1.1.854,18.224,18.224,0,0,1,.525,4.514.992.992,0,0,1-1,.971l-4.549-.049a1.093,1.093,0,0,1-1.076-.991l-.4-4.28A.8.8,0,0,1,1885.85,1811.714Z" transform="translate(-1852.499 -1769.65)" fill="#64d55c"/>
      <g id="Group_69777" data-name="Group 69777" transform="translate(41.169 43.821)" opacity="0.6">
        <path id="Path_404" data-name="Path 404" d="M2072.741,1853.294a.549.549,0,0,0-.586.653l.11.734a.829.829,0,0,0,.792.682h11.049a.682.682,0,0,0,.681-.69l0-.187a.738.738,0,0,0-.7-.719Z" transform="translate(-2072.147 -1853.294)" fill="#fff"/>
      </g>
      <g id="Group_69782" data-name="Group 69782" transform="translate(9.252 51.868)">
        <path id="Path_405" data-name="Path 405" d="M1379.873,2066.25h-.011l-4.2-.04a1.129,1.129,0,0,1-1.152-.96l-.369-3.522a.766.766,0,0,1,.181-.575.924.924,0,0,1,.642-.317h0c.354-.024.852-.066,1.379-.111,1.11-.094,2.492-.212,3.269-.222a1.173,1.173,0,0,1,1.175.822,17.586,17.586,0,0,1,.158,3.969A1.037,1.037,0,0,1,1379.873,2066.25Zm-4.885-5.093a.6.6,0,0,0-.417.2.445.445,0,0,0-.107.334l.369,3.522a.808.808,0,0,0,.834.672l4.2.04h.008a.715.715,0,0,0,.753-.642,17.525,17.525,0,0,0-.147-3.877.866.866,0,0,0-.86-.584c-.766.01-2.141.127-3.246.221-.529.045-1.028.088-1.385.112Z" transform="translate(-1374.139 -2059.075)" fill="#fff"/>
        <path id="Path_406" data-name="Path 406" d="M1391.3,2077.22c.882-.06,2.8-.255,3.708-.266a.812.812,0,0,1,.813.562,14.266,14.266,0,0,1,.122,3.135.7.7,0,0,1-.738.639l-3.355-.032a.775.775,0,0,1-.793-.651l-.295-2.815A.545.545,0,0,1,1391.3,2077.22Z" transform="translate(-1389.995 -2074.775)" fill="#fff" opacity="0.6"/>
        <g id="Group_69778" data-name="Group 69778" transform="translate(9.386 3.528)" opacity="0.6">
          <path id="Path_407" data-name="Path 407" d="M1579.441,2107.763a1.042,1.042,0,0,0,1.017.776l38.839-.331a.788.788,0,0,0,0-1.576l-38.84-.177A1.042,1.042,0,0,0,1579.441,2107.763Z" transform="translate(-1579.406 -2106.455)" fill="#fff"/>
        </g>
        <path id="Path_408" data-name="Path 408" d="M1399.556,2032.295h0a.644.644,0,0,1,.889.242l.828,1.484a.207.207,0,0,0,.37-.016l2.054-4.572a.229.229,0,0,1,.438.1,9.027,9.027,0,0,1-2.627,6.282,4.908,4.908,0,0,1-2.223-2.656A.676.676,0,0,1,1399.556,2032.295Z" transform="translate(-1398.077 -2029.297)" fill="#64d55c"/>
        <path id="Path_409" data-name="Path 409" d="M1379.873,2263h-.011l-4.2-.04a1.128,1.128,0,0,1-1.152-.96l-.369-3.522a.765.765,0,0,1,.181-.575.922.922,0,0,1,.642-.317h0c.354-.024.852-.066,1.379-.111,1.11-.094,2.492-.212,3.269-.222h.017a1.171,1.171,0,0,1,1.158.822,17.586,17.586,0,0,1,.158,3.969A1.037,1.037,0,0,1,1379.873,2263Zm-4.885-5.093a.6.6,0,0,0-.417.2.446.446,0,0,0-.107.335l.369,3.522a.807.807,0,0,0,.834.671l4.2.04h.008a.715.715,0,0,0,.753-.642,17.525,17.525,0,0,0-.147-3.877.862.862,0,0,0-.86-.584c-.766.01-2.141.127-3.246.221-.529.045-1.028.088-1.385.112Z" transform="translate(-1374.139 -2246.833)" fill="#fff"/>
        <path id="Path_410" data-name="Path 410" d="M1391.3,2273.979c.882-.06,2.8-.255,3.708-.266a.813.813,0,0,1,.813.562,14.265,14.265,0,0,1,.122,3.135.7.7,0,0,1-.738.639l-3.355-.032a.775.775,0,0,1-.793-.651l-.295-2.815A.544.544,0,0,1,1391.3,2273.979Z" transform="translate(-1389.995 -2262.536)" fill="#fff" opacity="0.6"/>
        <g id="Group_69779" data-name="Group 69779" transform="translate(9.386 12.525)" opacity="0.6">
          <path id="Path_411" data-name="Path 411" d="M1579.441,2304.521a1.042,1.042,0,0,0,1.017.776l38.839-.331a.788.788,0,0,0,0-1.576l-38.84-.177A1.042,1.042,0,0,0,1579.441,2304.521Z" transform="translate(-1579.406 -2303.213)" fill="#fff"/>
        </g>
        <path id="Path_412" data-name="Path 412" d="M1399.556,2229.053h0a.644.644,0,0,1,.889.241l.828,1.484a.207.207,0,0,0,.37-.016l2.054-4.572a.229.229,0,0,1,.438.1,9.027,9.027,0,0,1-2.627,6.282,4.908,4.908,0,0,1-2.223-2.656A.676.676,0,0,1,1399.556,2229.053Z" transform="translate(-1398.077 -2217.058)" fill="#64d55c"/>
        <path id="Path_413" data-name="Path 413" d="M1379.873,2459.761h-.011l-4.2-.041a1.128,1.128,0,0,1-1.152-.959l-.369-3.522a.764.764,0,0,1,.181-.575.92.92,0,0,1,.642-.317h0c.354-.024.852-.067,1.379-.112,1.11-.094,2.492-.212,3.269-.222h.017a1.17,1.17,0,0,1,1.158.822,17.584,17.584,0,0,1,.158,3.969A1.037,1.037,0,0,1,1379.873,2459.761Zm-4.885-5.093a.6.6,0,0,0-.417.2.446.446,0,0,0-.107.335l.369,3.522a.807.807,0,0,0,.834.671l4.2.04h.008a.715.715,0,0,0,.753-.642,17.525,17.525,0,0,0-.147-3.877.86.86,0,0,0-.86-.584c-.766.01-2.141.126-3.246.221-.529.045-1.028.087-1.385.112Z" transform="translate(-1374.139 -2434.593)" fill="#fff"/>
        <path id="Path_414" data-name="Path 414" d="M1391.3,2470.736c.882-.06,2.8-.255,3.708-.266a.813.813,0,0,1,.813.562,14.266,14.266,0,0,1,.122,3.135.7.7,0,0,1-.738.639l-3.355-.032a.775.775,0,0,1-.793-.652l-.295-2.815A.545.545,0,0,1,1391.3,2470.736Z" transform="translate(-1389.995 -2450.296)" fill="#fff" opacity="0.6"/>
        <g id="Group_69780" data-name="Group 69780" transform="translate(9.386 21.522)" opacity="0.6">
          <path id="Path_415" data-name="Path 415" d="M1579.441,2501.279a1.042,1.042,0,0,0,1.017.777l38.839-.331a.788.788,0,0,0,0-1.576l-38.84-.177A1.042,1.042,0,0,0,1579.441,2501.279Z" transform="translate(-1579.406 -2499.971)" fill="#fff"/>
        </g>
        <path id="Path_416" data-name="Path 416" d="M1399.556,2425.811h0a.644.644,0,0,1,.889.242l.828,1.484a.207.207,0,0,0,.37-.016l2.054-4.572a.229.229,0,0,1,.438.1,9.027,9.027,0,0,1-2.627,6.282,4.909,4.909,0,0,1-2.223-2.656A.676.676,0,0,1,1399.556,2425.811Z" transform="translate(-1398.077 -2404.819)" fill="#64d55c"/>
        <path id="Path_417" data-name="Path 417" d="M1379.873,2656.519h-.011l-4.2-.04a1.129,1.129,0,0,1-1.152-.959l-.369-3.522a.765.765,0,0,1,.181-.576.92.92,0,0,1,.642-.317h0c.354-.024.852-.067,1.379-.111,1.11-.095,2.492-.212,3.269-.222h.017a1.17,1.17,0,0,1,1.158.823,17.584,17.584,0,0,1,.158,3.969A1.037,1.037,0,0,1,1379.873,2656.519Zm-4.885-5.093a.6.6,0,0,0-.417.2.446.446,0,0,0-.107.335l.369,3.522a.807.807,0,0,0,.834.671l4.2.041h.008a.715.715,0,0,0,.753-.643,17.523,17.523,0,0,0-.147-3.877.858.858,0,0,0-.86-.584c-.766.009-2.141.126-3.246.221-.529.045-1.028.088-1.385.112Z" transform="translate(-1374.139 -2622.354)" fill="#fff"/>
        <path id="Path_418" data-name="Path 418" d="M1391.3,2667.494c.882-.061,2.8-.255,3.708-.266a.813.813,0,0,1,.813.562,14.268,14.268,0,0,1,.122,3.135.7.7,0,0,1-.738.639l-3.355-.032a.775.775,0,0,1-.793-.652l-.295-2.814A.545.545,0,0,1,1391.3,2667.494Z" transform="translate(-1389.995 -2638.058)" fill="#fff" opacity="0.6"/>
        <g id="Group_69781" data-name="Group 69781" transform="translate(9.386 30.519)" opacity="0.6">
          <path id="Path_419" data-name="Path 419" d="M1579.441,2698.037h0a1.042,1.042,0,0,0,1.017.776l38.839-.331a.788.788,0,0,0,0-1.576l-38.84-.177A1.042,1.042,0,0,0,1579.441,2698.037Z" transform="translate(-1579.406 -2696.729)" fill="#fff"/>
        </g>
        <path id="Path_420" data-name="Path 420" d="M1399.556,2622.568h0a.645.645,0,0,1,.889.242l.828,1.485a.207.207,0,0,0,.37-.016l2.054-4.572a.229.229,0,0,1,.438.1,9.028,9.028,0,0,1-2.627,6.282,4.909,4.909,0,0,1-2.223-2.656A.676.676,0,0,1,1399.556,2622.568Z" transform="translate(-1398.077 -2592.58)" fill="#64d55c"/>
      </g>
    </g>
    <path id="Path_421" data-name="Path 421" d="M1792.4,629.1a5.98,5.98,0,0,0-5.277-1.066,2.6,2.6,0,0,0-1.844,2.729l.561,6.126,6.679.593S1796.573,632,1792.4,629.1Zm-2.937,4.942a1.665,1.665,0,1,1,1.665-1.665A1.665,1.665,0,0,1,1789.466,634.041Z" transform="translate(-1752.398 -627.809)" fill="url(#linear-gradient-12)"/>
    <path id="Path_422" data-name="Path 422" d="M1803.743,653.033a.161.161,0,0,1-.16-.147l-.089-.976a.161.161,0,1,1,.321-.029l.089.976a.161.161,0,0,1-.146.175Zm-.175-1.912a.161.161,0,0,1-.16-.147l-.068-.741a2.478,2.478,0,0,1,1.757-2.6,4.993,4.993,0,0,1,2.441-.1.161.161,0,0,1-.065.316,4.678,4.678,0,0,0-2.285.094,2.155,2.155,0,0,0-1.527,2.261l.068.741a.161.161,0,0,1-.146.175Z" transform="translate(-1769.629 -646.531)" fill="#fff"/>
    <path id="Path_423" data-name="Path 423" d="M1598.432,809.443v-3.08a1.879,1.879,0,0,1,1.944-1.878l21.236.728a1.828,1.828,0,0,1,1.762,1.718l.178,2.96Z" transform="translate(-1574.102 -796.405)" fill="url(#linear-gradient-13)"/>
    <path id="Path_424" data-name="Path 424" d="M1749.182,823.162h-.913a.161.161,0,0,1,0-.322h.913a.161.161,0,0,1,0,.322Z" transform="translate(-1716.933 -813.922)" fill="#fff"/>
    <path id="Path_425" data-name="Path 425" d="M1620.206,825.993a.161.161,0,0,1-.161-.161v-1.246a1.748,1.748,0,0,1,1.746-1.746h3.358a.161.161,0,0,1,0,.322h-3.358a1.425,1.425,0,0,0-1.424,1.424v1.246A.161.161,0,0,1,1620.206,825.993Z" transform="translate(-1594.726 -813.922)" fill="#fff"/>
    <path id="Path_426" data-name="Path 426" d="M2062.08,982.708l-5-4.076-5,4.076a85.7,85.7,0,0,0,.374-12.754q-.1-2.218-.3-4.293a.633.633,0,0,1,.631-.693h8.7a.633.633,0,0,1,.632.6q.167,3.186.207,6.589C2062.359,975.854,2062.266,979.377,2062.08,982.708Z" transform="translate(-2007.007 -949.55)" fill="url(#linear-gradient-14)"/>
    <path id="Path_427" data-name="Path 427" d="M1407.449,890.18a2,2,0,0,1,2-1.905h37.135a2.745,2.745,0,0,1,2.7,2.277l.031.182a2.357,2.357,0,0,1-2.323,2.759h-38.1a1.532,1.532,0,0,1-1.531-1.606Z" transform="translate(-1391.771 -876.364)" fill="url(#linear-gradient-15)"/>
  </g>
  <g id="Group_69788" data-name="Group 69788" transform="translate(17.914 45.337)">
    <path id="Path_448" data-name="Path 448" d="M1054.165,1446.73l-.72.912,0,0a.153.153,0,1,1-.24-.19l0,0,.747-.9a.139.139,0,0,1,.217.175Z" transform="translate(-1043.959 -1446.501)" fill="#fff"/>
    <path id="Path_449" data-name="Path 449" d="M987.973,1517.929l-1.221,1.948-.006.009a.211.211,0,0,1-.358-.224l0,0,1.27-1.942a.189.189,0,0,1,.318.2Z" transform="translate(-980.201 -1514.379)" fill="#fff"/>
    <path id="Path_450" data-name="Path 450" d="M933.177,1616.095l-.979,2.077-.006.012a.258.258,0,1,1-.466-.22l0,0,1.028-2.083a.237.237,0,0,1,.428.206Z" transform="translate(-928.045 -1608.006)" fill="#fff"/>
    <path id="Path_451" data-name="Path 451" d="M891.369,1720.669l-.711,2.18-.005.016a.3.3,0,0,1-.579-.189l0-.005.76-2.2a.284.284,0,0,1,.539.181Z" transform="translate(-888.307 -1707.763)" fill="#fff"/>
    <path id="Path_452" data-name="Path 452" d="M864.2,1830.35l-.424,2.25,0,.02a.339.339,0,0,1-.667-.126v0l.456-2.284a.327.327,0,0,1,.641.124Z" transform="translate(-862.577 -1812.411)" fill="#fff"/>
    <path id="Path_453" data-name="Path 453" d="M852.6,1943.7l-.112,2.284v.022a.368.368,0,0,1-.735-.036v0l.14-2.327a.355.355,0,0,1,.709.039Z" transform="translate(-851.752 -1920.592)" fill="#fff"/>
    <path id="Path_454" data-name="Path 454" d="M853.109,2058.4l.2,2.277,0,.023a.4.4,0,1,1-.79.07v0l-.182-2.326a.384.384,0,0,1,.765-.064Z" transform="translate(-852.314 -2030.064)" fill="#fff"/>
    <path id="Path_455" data-name="Path 455" d="M866.542,2172.253l.512,2.227.006.025a.425.425,0,0,1-.829.19v0l-.5-2.281a.412.412,0,0,1,.8-.181Z" transform="translate(-865.083 -2138.74)" fill="#fff"/>
    <path id="Path_456" data-name="Path 456" d="M895.4,2283.116l.8,2.14.009.024a.447.447,0,1,1-.837.313v0l-.805-2.192a.441.441,0,1,1,.828-.3Z" transform="translate(-892.583 -2244.564)" fill="#fff"/>
    <path id="Path_457" data-name="Path 457" d="M939.137,2389.5l1.067,2.02.012.023a.456.456,0,0,1-.807.426h0l-1.083-2.069a.452.452,0,1,1,.8-.42Z" transform="translate(-934.317 -2346.129)" fill="#fff"/>
    <path id="Path_458" data-name="Path 458" d="M996.212,2489.408l1.313,1.87.015.021a.466.466,0,1,1-.763.535h0l-1.335-1.916a.462.462,0,1,1,.758-.528Z" transform="translate(-988.792 -2441.514)" fill="#fff"/>
    <path id="Path_459" data-name="Path 459" d="M1065.372,2581.35l1.536,1.69.018.02a.475.475,0,1,1-.7.639h0l-1.565-1.735a.471.471,0,0,1,.7-.631Z" transform="translate(-1054.805 -2529.293)" fill="#fff"/>
    <path id="Path_460" data-name="Path 460" d="M1145.577,2663.8l1.741,1.474.022.019a.485.485,0,1,1-.626.74h0l-1.78-1.517a.481.481,0,0,1,.624-.732Z" transform="translate(-1131.366 -2608.008)" fill="#fff"/>
    <path id="Path_461" data-name="Path 461" d="M1236.1,2734.7l.965.6.482.3c.162.1.319.205.485.3a.494.494,0,1,1-.478.866h0l-.013-.007c-.171-.1-.333-.2-.5-.307l-.5-.312-.992-.624a.49.49,0,1,1,.522-.83Z" transform="translate(-1217.784 -2675.714)" fill="#fff"/>
    <path id="Path_462" data-name="Path 462" d="M1336.695,2790.979q1.034.472,2.1.874a.5.5,0,0,1-.35.931q-1.1-.411-2.165-.9a.5.5,0,0,1,.415-.909Z" transform="translate(-1313.845 -2729.459)" fill="#fff"/>
    <path id="Path_463" data-name="Path 463" d="M1444.752,2830.545l2.211.548.03.007a.491.491,0,0,1-.235.953l-2.273-.558a.493.493,0,1,1,.235-.958h0Z" transform="translate(-1417.024 -2767.238)" fill="#fff"/>
    <path id="Path_464" data-name="Path 464" d="M1557.846,2853.891l2.269.242.027,0a.483.483,0,0,1-.1.961l-2.325-.24a.487.487,0,1,1,.1-.969h0Z" transform="translate(-1525.019 -2789.532)" fill="#fff"/>
    <path id="Path_465" data-name="Path 465" d="M1673.214,2861.363l2.285-.037h.024a.463.463,0,0,1,.019.926l-2.333.055a.472.472,0,0,1-.022-.944h.028Z" transform="translate(-1635.186 -2796.633)" fill="#fff"/>
    <path id="Path_466" data-name="Path 466" d="M1788.845,2850.325l2.27-.294.021,0a.443.443,0,0,1,.117.878l-2.309.318a.452.452,0,0,1-.123-.9h0Z" transform="translate(-1745.6 -2785.848)" fill="#fff"/>
    <path id="Path_467" data-name="Path 467" d="M1903.342,2827.6l2.231-.52.017,0a.4.4,0,0,1,.189.785l-2.258.561a.421.421,0,1,1-.2-.817h0Z" transform="translate(-1854.93 -2763.939)" fill="#fff"/>
    <path id="Path_468" data-name="Path 468" d="M2015.568,2793.925l2.174-.732.014,0a.365.365,0,0,1,.238.69l-2.192.774a.382.382,0,1,1-.255-.721h0Z" transform="translate(-1962.089 -2731.592)" fill="#fff"/>
    <path id="Path_469" data-name="Path 469" d="M2124.493,2750.307l2.1-.926.011-.005a.326.326,0,0,1,.268.6l-2.111.968a.343.343,0,1,1-.286-.624h0Z" transform="translate(-2066.089 -2689.776)" fill="#fff"/>
    <path id="Path_470" data-name="Path 470" d="M2229.615,2698.09l2.023-1.094.009,0a.267.267,0,0,1,.259.467l-2.014,1.152a.295.295,0,0,1-.293-.512l0,0Z" transform="translate(-2166.454 -2639.782)" fill="#fff"/>
    <path id="Path_471" data-name="Path 471" d="M2330.538,2637.719l1.929-1.256.006,0a.2.2,0,0,1,.226.338l-1.911,1.31a.231.231,0,1,1-.261-.381l0,0Z" transform="translate(-2262.813 -2582.016)" fill="#fff"/>
    <path id="Path_472" data-name="Path 472" d="M2426.839,2584.649l.932-.7,0,0a.14.14,0,0,1,.171.221l-.914.731a.158.158,0,0,1-.2-.247l0,0Z" transform="translate(-2354.755 -2531.912)" fill="#fff"/>
  </g>
</svg>
