<svg xmlns="http://www.w3.org/2000/svg" width="313.057" height="287.49" viewBox="0 0 313.057 287.49">
  <g id="Group_72074" data-name="Group 72074" transform="translate(-18.472 -51.369)">
    <path id="Floor" d="M64.318,373.683c-61.129-35.293-61.129-92.513,0-127.8s160.236-35.292,221.364,0,61.129,92.512,0,127.8S125.446,408.977,64.318,373.683Z" transform="translate(0 -61.294)" fill="#f5f5f5"/>
    <ellipse id="Shadow" cx="48.025" cy="27.727" rx="48.025" ry="27.727" transform="translate(65.211 258.635)" fill="#e0e0e0"/>
    <ellipse id="Shadow-2" data-name="Shadow" cx="68.512" cy="34.093" rx="68.512" ry="34.093" transform="translate(131.565 245.924) rotate(-28.337)" fill="#e0e0e0"/>
    <g id="Plants" transform="translate(251.887 204.697)">
      <g id="Group_71785" data-name="Group 71785" transform="translate(0.001)">
        <path id="Path_876" data-name="Path 876" d="M369.221,317.654c6.661-7.939,17.092-13.112,28.823-16.164,11.581-3.013,13.657-10.139,5.98-12.452-8.7-2.621-19.562,2.2-26.563,8.895-12.2,11.675-13.732,20.611-13.732,20.611Z" transform="translate(-363.729 -288.311)" fill="#27debf"/>
        <path id="Path_877" data-name="Path 877" d="M369.221,317.654c6.661-7.939,17.092-13.112,28.823-16.164,11.581-3.013,13.657-10.139,5.98-12.452-8.7-2.621-19.562,2.2-26.563,8.895-12.2,11.675-13.732,20.611-13.732,20.611Z" transform="translate(-363.729 -288.311)" opacity="0.15"/>
        <g id="Group_71784" data-name="Group 71784" transform="translate(1.724 3.48)">
          <path id="Path_878" data-name="Path 878" d="M366.617,318.858a.339.339,0,0,1-.3-.486c9.885-20.281,31.758-25.27,37.075-24.894a.338.338,0,0,1,.312.362.345.345,0,0,1-.362.312c-5.192-.4-26.685,4.547-36.417,24.515A.338.338,0,0,1,366.617,318.858Z" transform="translate(-366.278 -293.458)" fill="#fff"/>
        </g>
      </g>
      <g id="Group_71787" data-name="Group 71787" transform="translate(0 18.154)">
        <path id="Path_879" data-name="Path 879" d="M363.727,328.462a1.847,1.847,0,0,0,2.793,1.581c6.192-3.606,15.226-5.6,29.845-1.438,7.772,2.211,11.6.733,13.237-2.433,1.821-3.516-2.037-6.913-6.426-8.516-14.961-5.467-28.464-1.734-39.449,9.172Z" transform="translate(-363.727 -315.163)" fill="#27debf"/>
        <g id="Group_71786" data-name="Group 71786" transform="translate(0.513 4.544)">
          <path id="Path_880" data-name="Path 880" d="M364.824,330.929a.338.338,0,0,1-.225-.59c12.916-11.545,32.93-9.3,40.5-4.795a.338.338,0,1,1-.346.581c-7.42-4.411-27.037-6.608-39.707,4.718A.336.336,0,0,1,364.824,330.929Z" transform="translate(-364.486 -321.885)" fill="#fff"/>
        </g>
      </g>
    </g>
    <g id="Plants-2" data-name="Plants" transform="translate(66.988 230.298)">
      <g id="Group_71789" data-name="Group 71789" transform="translate(4.099 0)">
        <path id="Path_881" data-name="Path 881" d="M132.548,358.952c-5.678-8.669-15.426-15.038-26.715-19.452-11.145-4.359-12.366-11.68-4.469-13.07,8.951-1.576,19.166,4.489,25.328,11.967,10.741,13.033,11.2,22.087,11.2,22.087Z" transform="translate(-96.298 -326.179)" fill="#27debf"/>
        <path id="Path_882" data-name="Path 882" d="M132.548,358.952c-5.678-8.669-15.426-15.038-26.715-19.452-11.145-4.359-12.366-11.68-4.469-13.07,8.951-1.576,19.166,4.489,25.328,11.967,10.741,13.033,11.2,22.087,11.2,22.087Z" transform="translate(-96.298 -326.179)" opacity="0.15"/>
        <g id="Group_71788" data-name="Group 71788" transform="translate(5.837 3.176)">
          <path id="Path_883" data-name="Path 883" d="M138.805,360.418a.343.343,0,0,0,.151-.016.337.337,0,0,0,.208-.43c-7.423-21.306-28.554-28.84-33.878-29.094a.339.339,0,0,0-.353.323.345.345,0,0,0,.323.353c5.2.217,25.962,7.664,33.271,28.64A.335.335,0,0,0,138.805,360.418Z" transform="translate(-104.933 -330.877)" fill="#fff"/>
        </g>
      </g>
      <g id="Group_71791" data-name="Group 71791" transform="translate(0 18.989)">
        <path id="Path_884" data-name="Path 884" d="M135.982,369.171a2.812,2.812,0,0,1-4.363,2c-5.73-3.839-14.27-6.33-28.257-4.088-7.979,1.278-11.6-.641-12.858-3.979-1.393-3.706,2.838-6.624,7.387-7.7,15.5-3.663,28.469,1.636,38.091,13.763Z" transform="translate(-90.235 -354.266)" fill="#27debf"/>
        <g id="Group_71790" data-name="Group 71790" transform="translate(5.113 4.611)">
          <path id="Path_885" data-name="Path 885" d="M137.36,373.191a.338.338,0,0,0,.293-.56c-11.464-12.989-31.6-13.118-39.655-9.539a.338.338,0,1,0,.275.617c7.888-3.505,27.627-3.372,38.874,9.37A.333.333,0,0,0,137.36,373.191Z" transform="translate(-97.797 -361.087)" fill="#fff"/>
        </g>
      </g>
    </g>
    <g id="Check_Mark" data-name="Check Mark" transform="translate(132.806 74.101)">
      <g id="Circle" transform="translate(0 16.091)">
        <path id="Path_886" data-name="Path 886" d="M318.228,137.35l0-.005-.107-.054-.012-.006-25.771-14.836-.024-.013-.151-.076,0,.006c-12.039-6.073-28.1-4.252-45.381,6.92C212.071,151.731,185.62,203.4,187.7,244.679c1.038,20.577,8.972,34.688,20.965,40.891l0,0,.106.054.014.007,25.776,14.839.011.005.126.065,0-.005c12.042,6.092,28.12,4.276,45.412-6.906,34.711-22.445,61.162-74.108,59.079-115.392C338.155,157.663,330.221,143.552,318.228,137.35Z" transform="translate(-187.589 -118.941)" fill="#37474f"/>
        <path id="Path_887" data-name="Path 887" d="M233.686,332.321l-24.891-14.372h-.019l-.116-.07c-11.987-6.218-19.917-20.329-20.953-40.879-.93-18.411,3.828-38.876,12.436-57.883l.174-.416,25.607,15.251c-8.628,19.006-13.367,39.471-12.438,57.883C214.5,311.973,222.122,325.911,233.686,332.321Z" transform="translate(-187.589 -151.257)" fill="#263238"/>
        <path id="Path_888" data-name="Path 888" d="M292.471,300.744c34.711-22.445,61.161-74.108,59.078-115.392s-31.91-56.555-66.622-34.109-61.162,74.108-59.079,115.392S257.76,323.19,292.471,300.744Z" transform="translate(-199.945 -126.051)" fill="#455a64"/>
      </g>
      <path id="Shadow-3" data-name="Shadow" d="M329.812,141.434l-43.5,89.606-9.363-10.148a15.391,15.391,0,0,0-22.614,20.884L279,268.5a15.308,15.308,0,0,0,10.474,4.924q.426.022.853.023a15.79,15.79,0,0,0,2.23-.16,15.371,15.371,0,0,0,11.594-8.5l49.894-102.767C348.948,150.618,340.425,143.532,329.812,141.434Z" transform="translate(-207.89 -110.136)" fill="#37474f"/>
      <g id="Group_71792" data-name="Group 71792" transform="translate(47.065)">
        <path id="Path_889" data-name="Path 889" d="M367.391,96.919q-.407-.234-.836-.442a13.385,13.385,0,0,0-17.862,6.18l-55.36,114.026-3.144-3.408a13.12,13.12,0,0,0-3.138-2.506c-1.652-.946-8.668-5.01-9.8-5.666a13.366,13.366,0,0,0-16.508,20.638l24.667,26.722a13.256,13.256,0,0,0,3.184,2.533c1.61.917,8.6,4.97,9.747,5.634a13.32,13.32,0,0,0,5.98,1.776,13.631,13.631,0,0,0,2.675-.118A13.35,13.35,0,0,0,317.06,254.9l65.493-134.9a13.387,13.387,0,0,0-5.333-17.414C376.945,102.435,369.14,97.926,367.391,96.919Z" transform="translate(-257.205 -95.139)" fill="#27debf"/>
        <path id="Path_890" data-name="Path 890" d="M367.391,96.919q-.407-.234-.836-.442a13.385,13.385,0,0,0-17.862,6.18l-55.36,114.026-3.144-3.408a13.12,13.12,0,0,0-3.138-2.506c-1.652-.946-8.668-5.01-9.8-5.666a13.366,13.366,0,0,0-16.508,20.638l24.667,26.722a13.256,13.256,0,0,0,3.184,2.533c1.61.917,8.6,4.97,9.747,5.634a13.32,13.32,0,0,0,5.98,1.776,13.631,13.631,0,0,0,2.675-.118A13.35,13.35,0,0,0,317.06,254.9l65.493-134.9a13.387,13.387,0,0,0-5.333-17.414C376.945,102.435,369.14,97.926,367.391,96.919Z" transform="translate(-257.205 -95.139)" opacity="0.15"/>
        <path id="Path_891" data-name="Path 891" d="M298.806,321.259c-1.139-.661-8.134-4.716-9.746-5.635a13.349,13.349,0,0,1-3.186-2.53l-24.667-26.72a13.391,13.391,0,0,1-2.55-4.06l9.809,5.66a13.15,13.15,0,0,0,2.562,4.067L295.7,318.76A13.429,13.429,0,0,0,298.806,321.259Z" transform="translate(-257.675 -155.771)" opacity="0.15"/>
        <path id="Path_892" data-name="Path 892" d="M378.921,105.846a13.238,13.238,0,0,0-3.1,4.111L318.884,227.243l-8.235-8.927,55.359-114.024a13.085,13.085,0,0,1,3.1-4.111Z" transform="translate(-274.517 -96.772)" opacity="0.15"/>
        <path id="Check" d="M381.078,104.862a13.385,13.385,0,0,0-17.862,6.18L306.276,228.325l-11.382-12.334a13.363,13.363,0,0,0-19.632,18.134l24.667,26.721a13.289,13.289,0,0,0,9.092,4.274A13.631,13.631,0,0,0,311.7,265a13.35,13.35,0,0,0,10.067-7.383l65.493-134.9A13.382,13.382,0,0,0,381.078,104.862Z" transform="translate(-261.909 -97.856)" fill="#22d615"/>
      </g>
    </g>
    <g id="Character" transform="translate(60.056 51.369)">
      <g id="Group_71793" data-name="Group 71793" transform="translate(0 24.913)">
        <path id="Path_893" data-name="Path 893" d="M132.205,116.363c-5.156,0-8.688,1.343-12.351,6.56-3.359,4.785-12.6,20.74-12.6,20.74s-6.74-13.869-7.44-16.636-.638-3.995.028-5.2a10.854,10.854,0,0,0,1.708-4.756c.261-3.322,1.076-6.168.33-6.263-2.065-.118-2.142,2.53-3.226,4.1a1.292,1.292,0,0,1-2.078-.228c-.456-.926-.21-2.445-.431-3.541a15.335,15.335,0,0,1,.292-1.808,8.053,8.053,0,0,0,2.366.066c.891,1.4,1.5,1.99,2.747,1.421.164-.262-.535-2.059-1.343-3.353a.964.964,0,0,0-.555-.425,10.531,10.531,0,0,0-4.585-.126.857.857,0,0,0-.588.327,11.234,11.234,0,0,0-1.32,2.683c-.091.287-.358.281-.425.03a57.736,57.736,0,0,1-.669-10.075c0-1.708-2.5-1.975-2.587.471a79.211,79.211,0,0,0,.169,9.852c.039.295-.295.437-.416.114a40.833,40.833,0,0,1-1.941-10.683c-.12-1.62-2.743-1.888-2.723.392a57.749,57.749,0,0,0,1.5,12.006c.076.286-.183.537-.381.212a39.124,39.124,0,0,1-2.938-7.408c-.556-1.956-3.171-1.46-2.714.98.821,4.375,2.119,9.91,4.053,13.862,2.069,4.227,3.86,6.341,4.884,9.662s5.282,22.123,9.83,29.451c3.564,5.741,7.642,5.214,12.027,2.184S130.892,136.1,130.892,136.1Z" transform="translate(-79.981 -98.366)" fill="#9e6767"/>
        <path id="Path_894" data-name="Path 894" d="M120.319,164.556a21.191,21.191,0,0,1,2.533,6.708,11.709,11.709,0,0,0-1.55-8.4Z" transform="translate(-93.048 -119.26)" fill="#874c4c"/>
        <path id="Path_895" data-name="Path 895" d="M147.319,124.947a13.919,13.919,0,0,0-9.527,1.929c-3.643,2.29-4.907,5.487-6.67,8.278s-7.865,12.684-7.865,12.684,2.238,9.391,11.139,11.326l13.325-18.081Z" transform="translate(-93.999 -106.933)" fill="#0fbf02"/>
      </g>
      <g id="Group_71797" data-name="Group 71797" transform="translate(32.888 104.187)">
        <g id="Group_71794" data-name="Group 71794" transform="translate(4.353 96.879)">
          <path id="Path_896" data-name="Path 896" d="M163.129,369.226c.65-.082,1.571,2.22,1.584,2.971a9.592,9.592,0,0,1-1.737,3.88,27.3,27.3,0,0,0-3.276,5.832,19.749,19.749,0,0,1-3.6,6.175c-2.37,3.038-7.924,8.118-16.364,5.906a7.781,7.781,0,0,1-3.837-1.939,2.507,2.507,0,0,1-.59-2.582Z" transform="translate(-135.1 -362.26)" fill="#263238"/>
          <path id="Path_897" data-name="Path 897" d="M146.517,363.256c-.007.024-.013.048-.018.072a5.421,5.421,0,0,0,.056,1.9,13.278,13.278,0,0,1-3.2,10.407,19.944,19.944,0,0,1-3.944,3.188c-4.276,2.729-4.735,4.553-4.132,7.31,1.429,3.211,11.122,5.166,16.693.383a16.366,16.366,0,0,0,5.3-7.211,51.943,51.943,0,0,1,2.81-5.949c1.08-2.025,3.123-4.314,3.183-6.4.032-1.148-1.1-3.284-2.209-5.043-1.013-1.614-2.058-3.15-2.969-2.97l.251.913c-.759.79-1.863,1.084-2.528,2.011-.821,1.143-.792,2.679-1.3,3.991a.459.459,0,0,1-.248.3.325.325,0,0,1-.356-.181.96.96,0,0,1-.078-.422q-.029-.984-.059-1.967a1.643,1.643,0,0,0-.285-1.066c-.527-.6-1.828-.526-2.549-.555a27.692,27.692,0,0,0-2.913.175,1.422,1.422,0,0,0-.949.25A1.713,1.713,0,0,0,146.517,363.256Z" transform="translate(-135.065 -358.923)" fill="#37474f"/>
        </g>
        <g id="Group_71795" data-name="Group 71795">
          <path id="Path_898" data-name="Path 898" d="M130.432,277.531c2.253,7.4,12.777,33.029,13.41,34.571s2.094,5.087,2.094,5.087a7.884,7.884,0,0,0,4.275.178c.22,2.455.591,6.3.738,8.245a33.058,33.058,0,0,1-.24,7.258c-.413,1.9-.89,3.881-1.247,5.781-.158.841-.316,1.682-.443,2.529a4.232,4.232,0,0,0,.212,2.656,3.331,3.331,0,0,0,.835.949,7.447,7.447,0,0,0,5.3,1.557,5.578,5.578,0,0,0,2.81-.931c1.635-1.172,2.212-3.207,3.044-4.937.9-1.877.61-2.082.687-4.092.054-1.406.443-4.977,1.007-8.707s2.983-16.847,4.144-29.917a107.156,107.156,0,0,0,0-17.441c9.236-25.091,13.348-40.007,14.555-48.341,1.227-8.465.639-11.476.483-16.349l-44.91,1.082C133.578,239.917,127.41,267.6,130.432,277.531Zm21.938-39.809Z" transform="translate(-128.95 -215.624)" fill="#9e6767"/>
          <path id="Path_899" data-name="Path 899" d="M129.408,259.986c.926-8.532,7.306-41.329,7.306-41.329H181.96s.286,6.3.2,9.186-1.009,8.18-2.63,14.861-7.6,25.613-8.759,28.408-3.4,10.866-3.4,10.866c1.109,15.174-1.775,28.789-3.939,46.885,0,0-.626,2.444-7.039,1.96-6.231-.471-7.488-2.767-7.488-2.767l-.417-15.614s-3.408,1.045-5.408.567c0,0-13.392-33.061-14.04-35.053S128.482,268.517,129.408,259.986Z" transform="translate(-128.627 -216.606)" fill="#27debf"/>
          <path id="Path_900" data-name="Path 900" d="M129.408,259.986c.926-8.532,7.306-41.329,7.306-41.329H181.96s.286,6.3.2,9.186-1.009,8.18-2.63,14.861-7.6,25.613-8.759,28.408-3.4,10.866-3.4,10.866c1.109,15.174-1.775,28.789-3.939,46.885,0,0-.626,2.444-7.039,1.96-6.231-.471-7.488-2.767-7.488-2.767l-.417-15.614s-3.408,1.045-5.408.567c0,0-13.392-33.061-14.04-35.053S128.482,268.517,129.408,259.986Z" transform="translate(-128.627 -216.606)" opacity="0.45"/>
          <path id="Path_901" data-name="Path 901" d="M154.414,245.31c-6.406-5.777-7.831-10.373-7.831-10.373a42.711,42.711,0,0,0,11.281,9.041s-6.083,32.127-5.64,38.732,2.089,35,2.089,35c.012.272-4.314-30.034-4.436-32.456C149.553,278.879,154.414,245.31,154.414,245.31Z" transform="translate(-134.443 -221.88)" opacity="0.2"/>
        </g>
        <g id="Group_71796" data-name="Group 71796" transform="translate(3.343 118.38)">
          <path id="Path_902" data-name="Path 902" d="M164.6,405.464c.631.18.552,2.062.268,2.76a8.569,8.569,0,0,1-2.923,3.031,14.145,14.145,0,0,0-4.29,4.622,21.655,21.655,0,0,1-6.728,6.566,16.259,16.259,0,0,1-11.833,1.646c-4.244-1.205-4.64-2.245-4.6-3.847Z" transform="translate(-133.869 -395.5)" fill="#263238"/>
          <path id="Path_903" data-name="Path 903" d="M151.169,390.859c-1.113,5.435-3.053,9.379-7.554,12.724-3.578,2.659-6.179,4.01-9.033,6.388-1.217,1.013-1.318,3.171-.386,5.5,1.929,1.55,4.674,2.437,8.362,2.431,4.12-.006,5.706-.733,8.071-2.352a21.275,21.275,0,0,0,3.23-2.713c1.98-1.986,3.359-4.438,4.789-6.013s4.52-3.183,5.4-5.084c.483-1.044.278-3.458-.045-5.513-.3-1.886.281-5.2-.629-5.391.02,0-.124,1.349-.124,1.349-.075.306-.265.461-.9.681a4.587,4.587,0,0,1-1.74.051,1.029,1.029,0,0,0-1.163.329c-.61.719-.773,1.731-1.555,2.325a.484.484,0,0,1-.181.1.193.193,0,0,1-.189-.054.292.292,0,0,1-.034-.221q.113-1.011.226-2.021a2.48,2.48,0,0,0,.017-.613,1.327,1.327,0,0,0-.654-.888,7.356,7.356,0,0,0-1.816-.754,11.237,11.237,0,0,0-2.015-.343A6.308,6.308,0,0,0,151.169,390.859Z" transform="translate(-133.572 -390.725)" fill="#455a64"/>
        </g>
      </g>
      <path id="Path_904" data-name="Path 904" d="M181.589,126.941a26.706,26.706,0,0,1,3.356,7.827,128.174,128.174,0,0,1,2.841,26.312c0,11.942-1.612,31.3-1.612,31.3-13.863,6.949-36.228,2.84-46.07-3.937.4-2.152.736-13.454,1.51-20.911.525-12.793.956-19.5,1.047-25.187.181-11.372,5.841-17.245,10.116-17.332l10.857.17Z" transform="translate(-99.457 -82.085)" fill="#22d615"/>
      <g id="Group_71798" data-name="Group 71798" transform="translate(76.606 44.804)">
        <path id="Path_905" data-name="Path 905" d="M202.24,219.466c-2.06,1.7-6.108,4.957-6.849,6.6-.848,1.881-1.374,4.712-1.926,5.805s.295,1.6,1.482,1.222,1.9-1.4,2.82-3.856a11.648,11.648,0,0,1,3.474-4.386Z" transform="translate(-193.292 -157.486)" fill="#874c4c"/>
        <path id="Path_906" data-name="Path 906" d="M195.372,211.926c.492.951,1.645.955,2.712,1.042a8.678,8.678,0,0,0,3.833-.436,6.975,6.975,0,0,0,3.685-2.565c1.042-1.495,1.307-3.377,1.9-5.1,1.249-3.62,4.955-6.226,5.558-10.06.249-1.585.251-3.448.7-4.432.264-.578,6.355-11.066,8.527-15.608,2.088-4.366,3.649-6.42,1.756-11.67s-8.339-23.71-12.9-30.125c-2.587-3.639-6.692-4.676-11.668-5.107-3.785,9.864.621,20.049.621,20.049l10.014,19.319s-3.893,13.3-6.327,20.7c-.676,2.055-2.042,3.324-3.578,5.6-.667.989-2.2,2.722-2.746,3.783-.7,1.367-.684,2.242-1.013,4.155C195.926,204.528,195.137,211.472,195.372,211.926Z" transform="translate(-193.952 -127.813)" fill="#9e6767"/>
        <path id="Path_907" data-name="Path 907" d="M199.907,127.788c2.615.1,6.375.547,8.623,1.682s3.8,2.538,6.39,7.715,6.356,15.239,6.356,15.239-1.251,7.591-13.255,9.561l-8.115-14.96A29.926,29.926,0,0,1,199.907,127.788Z" transform="translate(-194.915 -127.788)" fill="#0fbf02"/>
      </g>
      <g id="Group_71803" data-name="Group 71803" transform="translate(43.683)">
        <g id="Group_71800" data-name="Group 71800">
          <g id="Group_71799" data-name="Group 71799">
            <path id="Path_908" data-name="Path 908" d="M151.322,82.157a16.348,16.348,0,0,1,.918,1.973,11.534,11.534,0,0,0,1.516,2.512,25.687,25.687,0,0,0,5.733,4.373,6.14,6.14,0,0,0,4.063,1.284,20.69,20.69,0,0,1,4.644.247l5.319.477-.3,5.594s.659-1.483,1.561-3.252c.774-1.52,4.005-9.239,4.017-9.268,1.6-3.825,3.5-8.92,1.587-12.938a5.335,5.335,0,0,0-2.08-2.385,4.7,4.7,0,0,0,.176-1.9,6.13,6.13,0,0,0-2.825-4.478,13.441,13.441,0,0,0-5.018-2.067,31.881,31.881,0,0,0-7.26-.808,43.429,43.429,0,0,0-7.124.819,25.662,25.662,0,0,1-3.969.414,7.509,7.509,0,0,1-1.719-.082,19.261,19.261,0,0,1-2.073-.748.485.485,0,0,0-.37-.03.464.464,0,0,0-.2.318,6.023,6.023,0,0,0,1.1,4.877,3.275,3.275,0,0,1-.88-.256,6.367,6.367,0,0,1-.913-.514,5.22,5.22,0,0,1-1.283-1.224.389.389,0,0,0-.211-.158c-.134-.024-.248.093-.329.2a4.768,4.768,0,0,0-.7,3.737,8.167,8.167,0,0,0,1.759,3.454,4.741,4.741,0,0,0-.239,4.537,6.1,6.1,0,0,0,1.195,1.719c.606.622,1.326,1.13,1.964,1.709A11.813,11.813,0,0,1,151.322,82.157Z" transform="translate(-144.595 -61.517)" fill="#37474f"/>
            <path id="Path_909" data-name="Path 909" d="M169.07,78.2a10.506,10.506,0,0,0,.383,2.99,5.88,5.88,0,0,0,1.51,2.224,17.477,17.477,0,0,1,2.094,2.116,8.9,8.9,0,0,1,1.177,3.893,2.749,2.749,0,0,0,1.028,2.1c1.446.894,2.313-.84,3.084-1.692,1-.92,3.945-2.041,5.31,1.095,1.414,3.248-1.191,7.548-3.566,8.209-4.092,1.14-4.981-1.644-4.981-1.644l-.784,14.6c-2.311,4.376-7.733,5.765-11.3,5.069-3.075-.6-4.766-2.756-1.873-5.883l.156-4.447a25.539,25.539,0,0,1-5.471.1c-2.964-.557-4.434-3.076-5.233-6.33-1.284-5.227-1.87-10.72-.283-22.489.729-.4,3.653,1.877,8.08,2.183A20.561,20.561,0,0,0,169.07,78.2Z" transform="translate(-146.141 -66.88)" fill="#9e6767"/>
          </g>
          <path id="Path_910" data-name="Path 910" d="M167.009,118.05s6.694-1.124,9.059-2.284a7.67,7.67,0,0,0,3.317-3.075,10.491,10.491,0,0,1-1.948,3.691c-1.771,2.119-10.486,3.438-10.486,3.438Z" transform="translate(-151.837 -78.093)" fill="#874c4c"/>
        </g>
        <g id="Group_71802" data-name="Group 71802" transform="translate(0.104 15.267)">
          <path id="Path_911" data-name="Path 911" d="M172.15,85.383l3.116.954a1.711,1.711,0,0,0-1.118-2.086A1.59,1.59,0,0,0,172.15,85.383Z" transform="translate(-153.625 -84.126)" fill="#263238"/>
          <path id="Path_912" data-name="Path 912" d="M168.35,107.839l-4.587,1.554a2.379,2.379,0,0,0,3.029,1.6A2.536,2.536,0,0,0,168.35,107.839Z" transform="translate(-150.908 -91.789)" fill="#874c4c"/>
          <path id="Path_913" data-name="Path 913" d="M168.747,109.5a2.7,2.7,0,0,0-2.616,2.052,2.311,2.311,0,0,0,1.429-.02,2.486,2.486,0,0,0,1.631-1.988A2.673,2.673,0,0,0,168.747,109.5Z" transform="translate(-151.675 -92.327)" fill="#f28f8f"/>
          <path id="Path_914" data-name="Path 914" d="M151.57,85.881l3.165-.417a1.541,1.541,0,0,0-1.752-1.35A1.625,1.625,0,0,0,151.57,85.881Z" transform="translate(-146.955 -84.099)" fill="#263238"/>
          <path id="Path_915" data-name="Path 915" d="M180.4,88.732l10.455,3.583a3.807,3.807,0,0,0-3.013,1.529l-7.406-2.812Z" transform="translate(-156.298 -85.6)" fill="#263238"/>
          <path id="Path_916" data-name="Path 916" d="M153.876,94.161a1.251,1.251,0,1,0,1.292-1.261A1.271,1.271,0,0,0,153.876,94.161Z" transform="translate(-147.705 -86.95)" fill="#263238"/>
          <path id="Path_917" data-name="Path 917" d="M171.55,94.17a1.251,1.251,0,1,0,1.292-1.261A1.271,1.271,0,0,0,171.55,94.17Z" transform="translate(-153.43 -86.953)" fill="#263238"/>
          <g id="Group_71801" data-name="Group 71801" transform="translate(0 2.439)">
            <path id="Path_918" data-name="Path 918" d="M144.752,89.159a2.849,2.849,0,0,0,.66,1.474,1.263,1.263,0,0,1,.265.525,26.353,26.353,0,0,0,.929,3.981,4.4,4.4,0,0,0,4.285,2.829,6.205,6.205,0,0,0,1.458-.123c.038-.007.074-.016.11-.024a4.187,4.187,0,0,0,1.185-.466l.07-.044c.035-.02.068-.041.1-.064s.059-.04.128-.088c.04-.028.078-.058.118-.089s.086-.069.128-.105.082-.07.123-.109c.08-.074.155-.151.229-.233a5.516,5.516,0,0,0,.953-1.513c.618-1.391.458-3.339,1.475-3.564a.955.955,0,0,1,.122-.018,1.184,1.184,0,0,1,.132-.005c1.383.02,1.228,2.141,2,3.655a5.168,5.168,0,0,0,5.05,3.037c.134,0,.264,0,.388,0,.106-.005.21-.011.309-.021a5.379,5.379,0,0,0,.722-.1c.078-.017.153-.033.227-.052s.147-.042.216-.062c.046-.012.091-.028.137-.043a4.085,4.085,0,0,0,.812-.382c.095-.059.183-.12.272-.183a3.738,3.738,0,0,0,.47-.412,4.788,4.788,0,0,0,.908-1.407,24.864,24.864,0,0,0,.819-3.947,1.717,1.717,0,0,1,.229-.574,2.7,2.7,0,0,0,.675-1.422,1.233,1.233,0,0,0-.835-1.25c-.235-.034-.481-.067-.736-.1a22.473,22.473,0,0,0-7.3.087c-2.314.633-3.117,1.374-4.407,1.356-1.207-.028-1.99-.8-4.182-1.514a19.82,19.82,0,0,0-6.836-.35q-.354.032-.683.072C145.107,87.951,144.706,88.523,144.752,89.159Zm15.224,1.447a1.968,1.968,0,0,1,.658-.538c.038-.024.077-.045.119-.066.022-.012.043-.023.066-.034.1-.053.211-.106.326-.154.1-.042.2-.084.3-.124a8.693,8.693,0,0,1,.988-.311c.129-.032.26-.064.393-.091a9.192,9.192,0,0,1,1.017-.16c.082-.009.162-.017.238-.019,2.228-.181,3.618.344,4.124.8.524.474.287,2.532.075,3.578l-.016.078c-.005.025-.011.053-.016.08-.026.126-.056.27-.1.423-.022.084-.047.172-.072.262a.063.063,0,0,1,0,.011q-.061.212-.149.437h0c-.019.049-.04.1-.061.149-.012.029-.025.059-.04.089s-.029.066-.046.1-.041.084-.062.125-.048.093-.075.139-.056.1-.089.147-.062.1-.1.147a3.5,3.5,0,0,1-3.115,1.469,4.3,4.3,0,0,1-3.29-1.254h0a4.661,4.661,0,0,1-1.078-2.111C159.7,92.605,159.541,91.241,159.976,90.606Zm-13.106-1.09a1.92,1.92,0,0,1,.545-.345.3.3,0,0,1,.043-.018c.074-.034.153-.065.241-.1.047-.016.1-.033.147-.047s.082-.025.122-.034.056-.015.082-.022a.164.164,0,0,1,.032-.007l.121-.028a5.194,5.194,0,0,1,.512-.085c.09-.011.183-.022.279-.027.054-.005.11-.008.168-.011s.086,0,.129-.006c.114,0,.233,0,.355,0l.131,0,.122,0a9.86,9.86,0,0,1,1.027.1c1.589.23,3.248.966,3.681,1.619a5.155,5.155,0,0,1,.128,3.173,5.374,5.374,0,0,1-.2.779c-.005.019-.014.04-.021.061s-.018.052-.028.079-.012.035-.02.053-.025.063-.039.094c-.027.066-.055.128-.086.193s-.053.11-.082.164c-.011.02-.022.04-.032.058-.02.035-.042.074-.065.111s-.038.062-.06.1a.094.094,0,0,1-.009.016,3.49,3.49,0,0,1-3.309,1.511,3.909,3.909,0,0,1-1.667-.4,4.723,4.723,0,0,1-2.17-3.4C146.707,92.04,146.4,89.97,146.87,89.515Z" transform="translate(-144.749 -87.707)" fill="#263238"/>
          </g>
          <path id="Path_919" data-name="Path 919" d="M161.326,93.423l-.237,8.691-4.85-1.4,4.521-7.362A1.255,1.255,0,0,1,161.326,93.423Z" transform="translate(-148.471 -87.094)" fill="#874c4c"/>
        </g>
      </g>
    </g>
    <g id="Like_icon" data-name="Like icon" transform="translate(242.577 55.619)">
      <path id="Path_923" data-name="Path 923" d="M356.487,88.941,352.7,90.082l-2.742-9.144,3.783-1.14Z" transform="translate(-349.957 -71.688)" fill="#e0e0e0"/>
      <path id="Path_924" data-name="Path 924" d="M370.772,76.934A1.757,1.757,0,0,1,369.7,78.7a2.634,2.634,0,0,1,.531.967c.218.708-.361,1.66-1.5,2l-8.674,2.61L357.5,75.787H357.5s1.472-3.757,1.544-4.322a13.921,13.921,0,0,0-.913-3.043c-.1-.32,1.284-.9,2.395-.456a1.933,1.933,0,0,1,.708.489,6.011,6.011,0,0,1,.995,1.425,5.163,5.163,0,0,1,.528,2.4l5.241-1.577a1.626,1.626,0,0,1,1.122.035,1.527,1.527,0,0,1,.865.917,1.558,1.558,0,0,1-.446,1.583,1.4,1.4,0,0,1,1.433.962,1.552,1.552,0,0,1-.865,1.757A1.643,1.643,0,0,1,370.772,76.934Z" transform="translate(-352.399 -67.803)" fill="#e0e0e0"/>
    </g>
    <g id="Like_icon-2" data-name="Like icon" transform="translate(298.595 148.871)">
      <path id="Path_925" data-name="Path 925" d="M437.676,227.435l-4.861-1.169,2.833-11.724,4.854,1.165Z" transform="translate(-432.815 -208.589)" fill="#e0e0e0"/>
      <path id="Path_926" data-name="Path 926" d="M458.926,223.264a2.219,2.219,0,0,1-2.3,1.247,3.319,3.319,0,0,1-.036,1.4c-.213.911-1.451,1.581-2.91,1.226s-11.127-2.677-11.127-2.677l2.625-10.893-.006,0s4-3.162,4.438-3.733c.448-.552.821-3.4.943-3.9.1-.411,1.976-.168,2.9,1.028a2.448,2.448,0,0,1,.46.985,7.6,7.6,0,0,1,.177,2.188,6.518,6.518,0,0,1-.951,2.953l6.722,1.618a2.064,2.064,0,0,1,1.2.753,1.93,1.93,0,0,1,.358,1.552,1.967,1.967,0,0,1-1.495,1.443,1.763,1.763,0,0,1,.951,1.963,1.96,1.96,0,0,1-2.063,1.366A2.076,2.076,0,0,1,458.926,223.264Z" transform="translate(-435.969 -205.736)" fill="#e0e0e0"/>
    </g>
    <g id="Like_icon-3" data-name="Like icon" transform="translate(40.992 136.543)">
      <path id="Path_927" data-name="Path 927" d="M76.823,217.1l5.305,1.6,3.84-12.8-5.3-1.6Z" transform="translate(-59.894 -192.941)" fill="#e0e0e0"/>
      <path id="Path_928" data-name="Path 928" d="M52.128,200.287a2.462,2.462,0,0,0,1.5,2.478,3.679,3.679,0,0,0-.744,1.356c-.3.991.505,2.325,2.1,2.8s12.147,3.655,12.147,3.655l3.574-11.893h.008s-2.061-5.261-2.162-6.052c-.12-.78,1.113-3.71,1.278-4.262.135-.449-1.8-1.264-3.353-.638a2.708,2.708,0,0,0-.991.685,8.419,8.419,0,0,0-1.392,2,7.239,7.239,0,0,0-.74,3.358l-7.338-2.208a2.287,2.287,0,0,0-1.571.049,2.144,2.144,0,0,0-1.211,1.285,2.178,2.178,0,0,0,.625,2.217,1.955,1.955,0,0,0-2.008,1.348,2.173,2.173,0,0,0,1.212,2.46A2.3,2.3,0,0,0,52.128,200.287Z" transform="translate(-51.783 -187.5)" fill="#e0e0e0"/>
    </g>
  </g>
</svg>
